<svg width="95" height="45" viewBox="0 0 95 45" fill="none" xmlns="http://www.w3.org/2000/svg">
<path d="M85.9911 24.7817L65.6016 21.4844L68.3045 34.0228L85.9911 24.7817Z" fill="#D12053"/>
<path d="M85.9912 24.7796L70.6269 2.75L65.6055 21.4863L85.9912 24.7796Z" fill="#E2136E"/>
<path d="M65.1289 21.2321L49.0303 0L70.1119 2.59896L65.1289 21.2321Z" fill="#D12053"/>
<path d="M57.7968 12.3577L48.8574 3.66406H51.2105L57.7968 12.3577Z" fill="#9E1638"/>
<path d="M90.3398 14.0703L86.5565 24.6606L80.4238 15.9074L90.3398 14.0703Z" fill="#D12053"/>
<path d="M70.6846 33.3838L85.5298 27.2296L86.1526 25.2734L70.6846 33.3838Z" fill="#E2136E"/>
<path d="M58.8115 44.9981L65.171 21.9766L68.3969 36.9553L58.8115 44.9981Z" fill="#9E1638"/>
<path d="M90.9321 14.1562L89.3711 18.5288L95 18.4336L90.9321 14.1562ZM0 15.91C0.272988 15.9339 0.549822 15.9854 0.842035 15.9854C1.13425 15.9854 1.37263 15.9339 1.68407 15.91V25.2226C2.57224 23.6633 3.69111 22.6356 5.33673 22.6356C8.31269 22.6356 9.5892 25.675 9.5892 28.4684C9.5892 31.8133 7.85899 35.0153 4.82536 35.0153C4.21798 35.0291 3.61854 34.8711 3.09194 34.5585C2.56534 34.2458 2.13166 33.7905 1.83787 33.2417C1.33034 33.702 0.880484 34.2535 0.39987 34.7535H0.0153796L0 15.91ZM1.64562 29.6071C1.64562 32.3212 2.76064 34.2138 4.59467 34.2138C6.97466 34.2138 7.7398 30.9126 7.7398 28.5715C7.7398 25.8535 6.87085 23.7149 4.80998 23.691C2.40307 23.6712 1.64562 26.6114 1.64562 29.6111V29.6071Z" fill="#E2136E"/>
<path d="M17.3516 21.9296L15.5599 24.3103C17.244 26.8498 18.9895 29.3376 20.6813 31.9088L22.3884 34.6863V34.8252C21.9693 34.7974 21.5887 34.7419 21.235 34.7419C20.8812 34.7419 20.4352 34.7974 20.0584 34.8252C19.5932 33.9364 19.1318 33.115 18.605 32.3095L13.9912 25.2666C13.8873 25.1555 13.6374 25.0682 13.6374 25.1833V34.8252C13.2991 34.7974 13.003 34.7419 12.7108 34.7419C12.4186 34.7419 12.0802 34.7974 11.7842 34.8252V15.9064C12.0802 15.9302 12.3994 15.9897 12.7108 15.9897C13.0222 15.9897 13.2991 15.9302 13.6374 15.9064V24.4452C13.6374 24.6119 13.9527 24.5008 14.1603 24.2786C14.5608 23.8501 14.9357 23.3969 15.283 22.9216L20.4698 15.8984C20.7428 15.9222 21.0158 15.9818 21.3119 15.9818C21.6079 15.9818 21.8348 15.9222 22.1347 15.8984L17.3516 21.9296ZM31.3048 32.6944C31.3048 33.6785 31.2433 34.1784 32.4852 33.8531V34.4046C32.2823 34.5095 32.0698 34.5932 31.8508 34.6546C30.755 34.8807 29.8476 34.6784 29.6784 33.1984L29.49 33.4166C29.1237 33.9119 28.6512 34.313 28.1095 34.5884C27.5678 34.8637 26.9717 35.0059 26.3679 35.0037C24.8761 35.0037 23.5688 33.7896 23.5688 31.9286C23.5688 29.0599 25.4913 28.6829 27.4637 28.306C29.1324 27.9806 29.7015 27.8298 29.7015 26.6196C29.7015 24.7547 28.8171 23.6755 27.2369 23.6755C26.6972 23.6646 26.1673 23.825 25.7189 24.1352C25.2705 24.4453 24.9253 24.8901 24.73 25.4094H24.4993V24.0127C25.4481 23.1609 26.6527 22.6731 27.9097 22.6319C30.1205 22.6319 31.324 24.0127 31.324 26.8577L31.3048 32.6944ZM29.6207 28.5401L28.8786 28.7147C27.4445 29.04 25.2952 29.29 25.2952 31.5874C25.2952 33.1745 26.0642 33.9681 27.3561 33.9681C28.0243 33.8832 28.6355 33.5366 29.0632 33C29.217 32.8174 29.6399 32.3889 29.6399 32.2064L29.6207 28.5401ZM35.0613 32.3611C35.5611 33.3491 36.4916 34.234 37.4835 34.234C38.0496 34.2042 38.5821 33.9481 38.9683 33.5199C39.3544 33.0918 39.5638 32.5253 39.5521 31.9405C39.5521 28.544 34.573 30.7502 34.573 26.3538C34.573 23.9413 36.1109 22.6359 38.0065 22.6359C38.8446 22.6168 39.6713 22.8422 40.3903 23.2866C40.1827 23.8687 40.0156 24.4654 39.8905 25.0722H39.6982C39.4214 24.2429 38.687 23.4096 37.9065 23.4096C36.853 23.4096 35.984 24.1437 35.984 25.5047C35.984 28.7226 40.9632 27.0085 40.9632 31.0359C40.9632 33.73 38.9408 35.0037 37.0798 35.0037C36.1479 35.003 35.2355 34.7277 34.4499 34.2102C34.6386 33.6065 34.7864 32.99 34.8921 32.3651L35.0613 32.3611ZM43.8007 15.9064C44.0814 15.9302 44.3544 15.9818 44.6466 15.9818C44.9388 15.9818 45.1772 15.9302 45.4925 15.9064V25.0682C46.2307 23.5326 47.388 22.6319 48.8875 22.6319C51.3329 22.6319 52.2826 24.3619 52.2826 27.5362V34.8252C51.9635 34.7974 51.7174 34.7498 51.4367 34.7498C51.156 34.7498 50.8677 34.8014 50.5908 34.8252V28.1115C50.5908 25.334 50.0487 23.9334 48.2531 23.9334C46.3538 23.9334 45.4925 25.3459 45.4925 27.9608V34.8252C45.1772 34.7974 44.9273 34.7498 44.6466 34.7498C44.3659 34.7498 44.0853 34.8014 43.8007 34.8252V15.9064Z" fill="white"/>
</svg>
