<svg width="100" height="25" viewBox="0 0 100 25" fill="none" xmlns="http://www.w3.org/2000/svg">
<g clip-path="url(#clip0_1682_17623)">
<path d="M5.17862 21.8901C5.07136 22.1093 4.88513 22.1831 4.66336 22.1838C3.31501 22.1838 1.96534 22.1879 0.61896 22.1838C0.195172 22.1838 0.00696795 21.9789 0.0003874 21.524C-0.00882537 20.8956 0.14845 20.2876 0.240578 19.6722C0.576844 17.4182 0.926929 15.1703 1.27372 12.9204C1.75147 9.81844 2.22944 6.71698 2.70763 3.61597C2.82607 2.84345 2.93597 2.06889 3.05179 1.29363C3.18866 0.378359 3.596 0.0102024 4.49095 0.00747022C5.82812 0.00268893 7.16529 -4.32394e-05 8.50509 0.00747022C10.039 0.0156667 11.5749 -0.05059 13.1069 0.0655271C14.4282 0.165934 15.724 0.402266 16.8071 1.27793C18.1331 2.3503 18.5793 3.812 18.4707 5.49912C18.4509 5.81536 18.4147 6.13025 18.3864 6.44649C18.3377 6.67805 18.2871 6.91028 18.2404 7.14252C17.885 8.91843 17.1875 10.5161 15.9273 11.7927C14.5309 13.2072 12.8088 13.8493 10.8721 13.8828C9.77645 13.9012 8.68013 13.8862 7.58184 13.8862C6.82705 13.8862 6.5 14.1232 6.34272 14.9039C6.00843 16.5541 5.82483 18.231 5.5445 19.8901C5.43066 20.5615 5.41223 21.2466 5.17862 21.8901Z" fill="white"/>
<path d="M35.9301 16.0405H34.5482C34.0099 16.0405 33.8151 16.1812 33.7151 16.7386C33.5651 17.5739 33.4519 18.4161 33.3203 19.2549C33.2485 19.7132 33.1886 20.175 33.0985 20.6299C33.0018 21.1141 32.7695 21.2951 32.2897 21.2972C31.5448 21.3013 30.7992 21.2972 30.0524 21.2972C29.4601 21.2972 29.2851 21.0998 29.3713 20.4864C29.4956 19.6121 29.6345 18.7399 29.7661 17.867C30.0903 15.7268 30.4147 13.5879 30.7394 11.4505C30.9868 9.81595 31.229 8.18007 31.477 6.54555C31.5044 6.33256 31.5696 6.12667 31.6692 5.93832C31.7258 5.82742 31.8114 5.73537 31.9162 5.67277C32.0209 5.61017 32.1406 5.57957 32.2614 5.58451C34.4528 5.58451 36.6454 5.54216 38.8341 5.60978C40.1502 5.65076 41.3163 6.16237 42.0513 7.4014C42.5297 8.20876 42.6271 9.109 42.5468 10.027C42.4271 11.3986 42.1178 12.7148 41.3419 13.8637C40.3549 15.3226 38.9565 15.9736 37.2738 16.0378C36.8251 16.0548 36.3756 16.0378 35.9262 16.0378L35.9301 16.0405ZM35.4787 13.0146C35.7847 13.0146 36.0913 13.0262 36.4 13.0146C37.1107 12.9818 37.6884 12.6731 38.0879 12.0584C38.3873 11.5966 38.509 11.07 38.5538 10.5195C38.6452 9.39997 38.0234 8.66298 36.9356 8.63565C36.3434 8.62063 35.7511 8.64453 35.1635 8.63565C34.9608 8.63156 34.9055 8.71625 34.8779 8.90545C34.6936 10.1814 34.5074 11.4573 34.3014 12.7305C34.258 12.9982 34.3409 13.0379 34.5646 13.0262C34.8654 13.003 35.172 13.0146 35.4787 13.0146Z" fill="white"/>
<path d="M74.8568 5.58725C75.9195 5.58725 76.9842 5.5449 78.0444 5.59818C79.3401 5.66648 80.491 6.10431 81.2596 7.27982C81.6207 7.83997 81.8204 8.49535 81.8354 9.16912C81.8854 10.5666 81.6341 11.9095 81.026 13.156C80.0784 15.0979 78.4918 15.9961 76.4262 16.0378C75.5497 16.0555 74.6732 16.0412 73.794 16.0426C73.2965 16.0426 73.109 16.1628 73.0135 16.6703C72.8431 17.5821 72.7141 18.5015 72.5674 19.4182C72.5016 19.8314 72.4542 20.2501 72.3607 20.6565C72.2489 21.1415 72.039 21.2958 71.5678 21.2979C70.79 21.302 70.0121 21.302 69.2343 21.2979C68.7638 21.2979 68.5684 21.0697 68.6421 20.5923C69.0185 18.0958 69.4034 15.6006 69.7805 13.1041C70.0981 10.9994 70.4129 8.8943 70.7248 6.78871C70.7465 6.64323 70.765 6.49705 70.7965 6.35362C70.9242 5.76757 71.1506 5.58042 71.7336 5.57973C72.7747 5.57973 73.8155 5.57973 74.8561 5.57973L74.8568 5.58725ZM74.7337 13.014C75.0397 13.014 75.347 13.0242 75.655 13.014C76.3519 12.9866 76.9237 12.6977 77.3337 12.1028C77.6693 11.6158 77.7983 11.0564 77.8312 10.4717C77.897 9.35012 77.2823 8.66093 76.1972 8.63566C75.6286 8.622 75.0594 8.64796 74.4909 8.63088C74.2678 8.62405 74.1849 8.70397 74.1533 8.92117C73.9651 10.219 73.7729 11.5167 73.5696 12.8145C73.54 13.0037 73.6051 13.0235 73.7519 13.0194C74.077 13.0099 74.4053 13.014 74.7337 13.014Z" fill="#009CE0"/>
<path d="M5.17879 21.8901C5.41042 21.2467 5.43082 20.5616 5.54401 19.8949C5.82434 18.2351 6.00794 16.5583 6.34223 14.9087C6.4995 14.128 6.82656 13.891 7.58135 13.891C8.67766 13.891 9.77398 13.906 10.8716 13.8876C12.8083 13.8541 14.5304 13.212 15.9268 11.7975C17.187 10.5209 17.8845 8.9198 18.2399 7.14731C18.2866 6.91508 18.3373 6.68285 18.386 6.45129C19.654 7.05579 20.3167 8.12406 20.3904 9.52498C20.5148 11.8712 19.983 14.0385 18.4235 15.8247C17.2436 17.1757 15.7175 17.7843 13.9796 17.8458C13.3216 17.869 12.6635 17.8526 12.0054 17.8574C11.4652 17.8615 11.2454 18.0213 11.0572 18.565C10.8525 19.1579 10.8394 19.789 10.742 20.4024C10.5307 21.733 10.3471 23.0663 10.1497 24.4003C10.0839 24.8524 9.91349 24.9993 9.46667 24.9993C8.12994 24.9993 6.79365 24.9993 5.4578 24.9993C5.03072 24.9993 4.87674 24.8545 4.89385 24.4044C4.92149 23.6667 5.0781 22.9447 5.18997 22.2186C5.2084 22.1059 5.2492 21.9966 5.17879 21.8901Z" fill="#009CE0"/>
<path d="M51.3664 21.3163C50.994 21.3163 50.6208 21.3163 50.2477 21.3163C49.8904 21.3163 49.7943 21.2139 49.8095 20.8491C49.8174 20.6442 49.8568 20.4441 49.8753 20.2412C49.8812 20.177 49.8845 20.0834 49.8489 20.05C49.7831 19.9885 49.7002 20.05 49.6423 20.0957C49.4278 20.2713 49.2152 20.4495 49.0079 20.6346C47.5102 21.9673 44.4463 22.1127 42.8749 20.2508C41.9773 19.1873 41.6456 17.9469 41.797 16.5582C41.999 14.7065 42.6814 13.0925 44.1002 11.8992C45.6203 10.6199 47.3707 10.2203 49.281 10.6438C49.997 10.8023 50.5675 11.2053 50.8762 11.9341C50.9077 12.0092 50.9334 12.1287 51.044 12.1144C51.1545 12.1 51.1512 11.9778 51.169 11.8965C51.2124 11.6984 51.2388 11.4962 51.2717 11.2954C51.3217 10.9942 51.4691 10.8494 51.7876 10.8569C52.5213 10.8733 53.2557 10.8569 53.9901 10.8624C54.4612 10.8624 54.6008 11.0283 54.5297 11.5092C54.4224 12.2373 54.3086 12.9641 54.196 13.6949C53.8508 15.9217 53.5047 18.1484 53.1576 20.3751C53.1388 20.5209 53.112 20.6655 53.0774 20.8081C52.9701 21.2084 52.8266 21.3163 52.4193 21.3204H51.3664V21.3163ZM50.7024 15.7741C50.7304 15.2012 50.5496 14.6383 50.196 14.1974C49.8424 13.7565 49.342 13.4698 48.7941 13.3944C47.2299 13.1635 45.6775 14.2475 45.288 15.8431C44.9556 17.2092 45.7308 18.5186 47.0272 18.7843C48.7941 19.147 50.634 17.6402 50.7024 15.7741Z" fill="white"/>
<path d="M90.6342 21.3157C90.2617 21.3157 89.8886 21.3157 89.5155 21.3157C89.1641 21.3116 89.0443 21.1702 89.0805 20.8061C89.1009 20.6012 89.1351 20.4018 89.1536 20.1982C89.1687 20.0343 89.0878 19.9838 88.9562 20.0746C88.8271 20.1595 88.7062 20.2569 88.5949 20.3656C87.0156 21.97 84.2912 21.9516 82.8698 20.9018C81.7952 20.1067 81.1404 19.0268 81.0694 17.6846C80.9378 15.2045 81.7491 13.096 83.7391 11.6158C85.1802 10.5434 86.8188 10.2497 88.5541 10.6439C89.2707 10.8078 89.8399 11.2087 90.1486 11.9362C90.1821 12.014 90.2144 12.1281 90.321 12.1117C90.4276 12.0953 90.4256 11.9826 90.4434 11.8965C90.4572 11.8282 90.4717 11.7599 90.4809 11.6964C90.6184 10.7101 90.6954 10.8768 91.4574 10.8658C92.0497 10.859 92.6419 10.8658 93.2342 10.8658C93.7547 10.8658 93.8679 10.9888 93.7909 11.5489C93.6718 12.4239 93.5277 13.2954 93.396 14.1683C93.089 16.1492 92.7819 18.13 92.4748 20.1108C92.432 20.3895 92.4037 20.6716 92.3063 20.94C92.2142 21.1941 92.049 21.3205 91.7838 21.3164C91.4015 21.3109 91.0178 21.315 90.6342 21.3157ZM86.83 18.8383C88.0941 18.8424 89.3681 17.9237 89.8064 16.6929C90.4256 14.9525 89.3497 13.3241 87.5979 13.3514C86.216 13.3733 84.9368 14.4129 84.5827 15.8049C84.1741 17.408 85.2302 18.8335 86.83 18.8383Z" fill="#009CE0"/>
<path d="M61.3549 16.7919L63.41 13.7236C63.9463 12.9217 64.4872 12.1239 65.0163 11.3173C65.2453 10.9669 65.5342 10.8016 65.9527 10.8159C66.664 10.8405 67.3767 10.8262 68.0887 10.8262C68.298 10.8262 68.5283 10.7947 68.6441 11.0236C68.7718 11.2749 68.6678 11.5058 68.5224 11.7203C68.0499 12.4156 67.5785 13.1123 67.1082 13.8104C65.0222 16.8954 62.9359 19.9789 60.8495 23.0608C60.5165 23.5533 60.1763 24.0403 59.8545 24.5403C59.7685 24.6859 59.6462 24.8048 59.5005 24.8841C59.3547 24.9635 59.191 25.0005 59.0267 24.9911C58.2047 24.9842 57.3815 24.9911 56.5616 24.9911C56.38 24.9911 56.2069 24.974 56.1088 24.7862C56.0108 24.5983 56.1088 24.4364 56.2122 24.2862C57.0301 23.0936 57.8402 21.8955 58.6733 20.7132C58.8904 20.4051 58.9648 20.1504 58.8339 19.7631C57.9343 17.1129 57.0663 14.4511 56.1845 11.7947C55.9595 11.1165 56.1483 10.8316 56.8426 10.8309C57.5368 10.8303 58.2245 10.8309 58.9128 10.8309C59.4182 10.8309 59.6229 10.9921 59.7683 11.4894C60.2623 13.1569 60.7562 14.8242 61.2502 16.4913C61.2733 16.574 61.3068 16.6559 61.3549 16.7919Z" fill="white"/>
<path d="M95.9675 21.3314C95.5516 21.3314 95.1351 21.3375 94.7172 21.3314C94.3882 21.3245 94.2994 21.19 94.352 20.8485C94.6968 18.6108 95.0405 16.3732 95.3832 14.1355C95.7938 11.4621 96.2051 8.78868 96.617 6.11526C96.6749 5.74163 96.8144 5.60776 97.1908 5.60503C97.9805 5.59911 98.7702 5.59911 99.5598 5.60503C99.9376 5.60844 100.046 5.74163 99.9856 6.14053C99.557 8.93827 99.1262 11.7353 98.6932 14.5317C98.3743 16.6136 98.0586 18.6957 97.7462 20.7781C97.6804 21.2248 97.5659 21.3307 97.1191 21.3334C96.7342 21.3334 96.3512 21.3314 95.9675 21.3314Z" fill="#009CE0"/>
</g>
<defs>
<clipPath id="clip0_1682_17623">
<rect width="100" height="25" fill="white"/>
</clipPath>
</defs>
</svg>
