<svg width="22" height="22" viewBox="0 0 22 22" fill="none" xmlns="http://www.w3.org/2000/svg">
<path d="M5.30108 5.92218C8.05483 3.16843 12.3816 2.94641 15.389 5.25611C15.8267 5.59227 15.8247 6.23141 15.4354 6.62259L14.6246 7.43722C13.9953 8.0695 14.4461 9.14688 15.3382 9.14264L19.5856 9.12241C20.1379 9.11979 20.5835 8.66994 20.5808 8.11766L20.5607 3.89044C20.5565 3.00069 19.4796 2.55913 18.8519 3.18977L18.392 3.65196C18.0021 4.04363 17.3714 4.04023 16.943 3.69127C13.0698 0.536874 7.36019 0.763999 3.75155 4.37264C2.08061 6.04358 1.13452 8.16669 0.913702 10.3472C0.858057 10.8967 1.311 11.3455 1.86328 11.3455L2.05465 11.3455C2.60694 11.3455 3.04795 10.8959 3.11928 10.3483C3.3302 8.72898 4.05734 7.16592 5.30108 5.92218Z" fill="white"/>
<path d="M16.1478 16.7689C17.3916 15.5251 18.1187 13.962 18.3296 12.3427C18.4009 11.7951 18.842 11.3455 19.3942 11.3455L19.5856 11.3455C20.1379 11.3455 20.5908 11.7943 20.5352 12.3438C20.3144 14.5243 19.3683 16.6475 17.6973 18.3184C14.0887 21.9271 8.37904 22.1542 4.50593 18.9998C4.07746 18.6508 3.44675 18.6475 3.05694 19.0391L2.59694 19.5013C1.96928 20.1319 0.892403 19.6904 0.888167 18.8006L0.868042 14.5734C0.865413 14.0211 1.31099 13.5713 1.86327 13.5687L6.11072 13.5484C7.00276 13.5442 7.45354 14.6216 6.82426 15.2539L6.01349 16.0685C5.62417 16.4597 5.62219 17.0988 6.0599 17.435C9.0673 19.7447 13.3941 19.5227 16.1478 16.7689Z" fill="white"/>
</svg>
