<svg width="58" height="58" viewBox="0 0 58 58" fill="none" xmlns="http://www.w3.org/2000/svg">
<circle cx="29" cy="29" r="29" fill="white"/>
<path d="M26 40H23C22.7348 40 22.4804 39.8946 22.2929 39.7071C22.1054 39.5196 22 39.2652 22 39V19C22 18.7348 22.1054 18.4804 22.2929 18.2929C22.4804 18.1054 22.7348 18 23 18H26C26.2652 18 26.5196 18.1054 26.7071 18.2929C26.8946 18.4804 27 18.7348 27 19V39C27 39.2652 26.8946 39.5196 26.7071 39.7071C26.5196 39.8946 26.2652 40 26 40Z" fill="#24AC99"/>
<path d="M35 40H32C31.7348 40 31.4804 39.8946 31.2929 39.7071C31.1054 39.5196 31 39.2652 31 39V19C31 18.7348 31.1054 18.4804 31.2929 18.2929C31.4804 18.1054 31.7348 18 32 18H35C35.2652 18 35.5196 18.1054 35.7071 18.2929C35.8946 18.4804 36 18.7348 36 19V39C36 39.2652 35.8946 39.5196 35.7071 39.7071C35.5196 39.8946 35.2652 40 35 40Z" fill="#24AC99"/>
</svg>
