<svg width="25" height="26" viewBox="0 0 25 26" fill="none" xmlns="http://www.w3.org/2000/svg">
<path d="M5.46875 22.75C5.67595 22.75 5.87466 22.6644 6.02118 22.512C6.16769 22.3597 6.25 22.153 6.25 21.9375L6.25 15.0094L17.6157 22.0843C17.8782 22.2503 18.1788 22.34 18.4861 22.344C18.7933 22.3479 19.0959 22.2659 19.3623 22.1066C19.9482 21.7613 20.3125 21.093 20.3125 20.3633L20.3125 5.63672C20.3125 4.90699 19.9482 4.23871 19.3623 3.8934C19.0959 3.73422 18.7932 3.65236 18.486 3.65638C18.1788 3.6604 17.8782 3.75015 17.6157 3.91625L6.25 10.9906V4.0625C6.25 3.84701 6.16769 3.64035 6.02118 3.48798C5.87466 3.3356 5.67595 3.25 5.46875 3.25C5.26155 3.25 5.06284 3.3356 4.91632 3.48798C4.76981 3.64035 4.6875 3.84701 4.6875 4.0625L4.6875 21.9375C4.6875 22.153 4.76981 22.3597 4.91632 22.512C5.06284 22.6644 5.26155 22.75 5.46875 22.75V22.75Z" fill="white"/>
</svg>
