<svg width="25" height="26" viewBox="0 0 25 26" fill="none" xmlns="http://www.w3.org/2000/svg">
<path d="M19.5312 3.25C19.324 3.25 19.1253 3.3356 18.9788 3.48798C18.8323 3.64035 18.75 3.84701 18.75 4.0625V10.9906L7.38428 3.91574C7.12176 3.74967 6.82117 3.65998 6.51393 3.65605C6.20668 3.65212 5.90406 3.73409 5.6377 3.8934C5.05176 4.23871 4.6875 4.90699 4.6875 5.63672V20.3633C4.6875 21.093 5.05176 21.7613 5.6377 22.1066C5.90412 22.2658 6.20676 22.3476 6.51399 22.3436C6.82123 22.3396 7.12179 22.2498 7.38428 22.0838L18.75 15.0094V21.9375C18.75 22.153 18.8323 22.3597 18.9788 22.512C19.1253 22.6644 19.324 22.75 19.5312 22.75C19.7385 22.75 19.9372 22.6644 20.0837 22.512C20.2302 22.3597 20.3125 22.153 20.3125 21.9375V4.0625C20.3125 3.84701 20.2302 3.64035 20.0837 3.48798C19.9372 3.3356 19.7385 3.25 19.5312 3.25V3.25Z" fill="white"/>
</svg>
