<svg width="22" height="22" viewBox="0 0 22 22" fill="none" xmlns="http://www.w3.org/2000/svg">
<path d="M17.531 7.70624C17.531 8.50406 18.4938 8.90557 19.0606 8.34413L21.2032 6.22197C21.5956 5.8333 21.5986 5.20012 21.2099 4.80774L19.2414 2.82049C18.6128 2.18592 17.531 2.63104 17.531 3.52423V3.59594C17.531 4.11077 17.1393 4.53831 16.6296 4.61043C14.5286 4.90766 12.9793 5.48339 11.7934 6.2784C11.3136 6.60004 10.9043 6.9508 10.5497 7.31846C10.0335 7.85361 9.10137 7.8308 8.61346 7.26972C8.3236 6.93638 7.99387 6.61703 7.61294 6.32211C6.16763 5.20316 4.11648 4.51771 0.999798 4.39922C0.447912 4.37824 0 4.82852 0 5.3808V5.57217C0 6.12446 0.448801 6.56925 1.0006 6.59233C3.79049 6.70903 5.32039 7.31858 6.27144 8.05488C7.11873 8.71085 7.60805 9.53159 8.10553 10.5412C8.23569 10.8053 8.23773 11.114 8.12016 11.3839C8.1089 11.4098 8.09773 11.4355 8.08663 11.461C7.68823 12.3768 7.38993 13.0625 6.57411 13.6941C5.62203 14.4312 3.8453 15.1712 1.00028 15.3133C0.448683 15.3408 0 15.7854 0 16.3377V16.529C0 17.0813 0.447912 17.5316 0.999798 17.5106C4.11647 17.3921 6.16763 16.7067 7.61294 15.5877C7.99387 15.2928 8.3236 14.9734 8.61346 14.6401C9.10137 14.079 10.0335 14.0562 10.5497 14.5914C10.9043 14.959 11.3136 15.3098 11.7934 15.6314C12.9793 16.4264 14.5286 17.0022 16.6296 17.2994C17.1393 17.3715 17.531 17.7991 17.531 18.3139V18.4181C17.531 19.3067 18.6033 19.7539 19.2347 19.1286L21.2032 17.1788C21.5956 16.7902 21.5986 16.157 21.2099 15.7646L19.0526 13.5867C18.4934 13.0222 17.531 13.4182 17.531 14.2128V14.2128C17.531 14.7419 17.0711 15.157 16.5492 15.0702C14.9091 14.7973 13.8022 14.3399 13.0136 13.8112C12.0444 13.1615 11.4676 12.3502 10.9606 11.3952C10.8145 11.12 10.8145 10.7898 10.9606 10.5146C11.4676 9.55966 12.0444 8.74834 13.0136 8.09859C13.8008 7.57088 14.905 7.11418 16.5401 6.8412C17.0668 6.75326 17.531 7.17224 17.531 7.70624V7.70624Z" fill="white"/>
</svg>
