<svg width="20" height="20" viewBox="0 0 20 20" fill="none" xmlns="http://www.w3.org/2000/svg">
<g clip-path="url(#clip0_151_16597)">
<path d="M3.33332 0H5.83332C7.67426 0 9.16664 1.49238 9.16664 3.33332V5.83332C9.16664 7.67426 7.67426 9.16664 5.83332 9.16664H3.33332C1.49238 9.16668 0 7.6743 0 5.83332V3.33332C0 1.49238 1.49238 0 3.33332 0Z" fill="#1FA45B"/>
<path d="M14.1663 0H16.6663C18.5073 0 19.9996 1.49238 19.9996 3.33332V5.83332C19.9996 7.67426 18.5073 9.16664 16.6663 9.16664H14.1663C12.3254 9.16664 10.833 7.67426 10.833 5.83332V3.33332C10.833 1.49238 12.3254 0 14.1663 0Z" fill="#1FA45B"/>
<path d="M3.33332 10.8359H5.83332C7.67426 10.8359 9.16664 12.3283 9.16664 14.1693V16.6693C9.16664 18.5102 7.67426 20.0026 5.83332 20.0026H3.33332C1.49238 20.0026 0 18.5102 0 16.6693V14.1693C0 12.3283 1.49238 10.8359 3.33332 10.8359Z" fill="#1FA45B"/>
<path d="M14.1663 10.8359H16.6663C18.5073 10.8359 19.9996 12.3283 19.9996 14.1693V16.6693C19.9996 18.5102 18.5073 20.0026 16.6663 20.0026H14.1663C12.3254 20.0026 10.833 18.5102 10.833 16.6693V14.1693C10.833 12.3283 12.3254 10.8359 14.1663 10.8359Z" fill="#1FA45B"/>
</g>
<defs>
<clipPath id="clip0_151_16597">
<rect width="20" height="20" fill="white"/>
</clipPath>
</defs>
</svg>
