<svg width="20" height="20" viewBox="0 0 20 20" fill="none" xmlns="http://www.w3.org/2000/svg">
<g clip-path="url(#clip0_111_11606)">
<path d="M18.5 1.80483C18.0249 1.40846 17.4676 1.12287 16.8684 0.968776C16.2692 0.814687 15.6432 0.795973 15.0358 0.913993L13.5658 1.27399C12.7987 1.41457 12.1051 1.81969 11.6059 2.41885C11.1066 3.018 10.8332 3.77325 10.8333 4.55316V17.4423C10.2807 17.5232 9.71928 17.5232 9.16667 17.4423V4.55316C9.16943 3.78044 8.90237 3.031 8.41157 2.43416C7.92078 1.83733 7.23703 1.43054 6.47833 1.28399L4.91667 0.903993C4.31596 0.794072 3.69844 0.817535 3.10781 0.972723C2.51718 1.12791 1.96789 1.41103 1.4988 1.80204C1.02972 2.19305 0.652322 2.68238 0.393318 3.23542C0.134315 3.78845 4.0677e-05 4.39165 0 5.00233L0 13.9965C4.78799e-05 14.9722 0.342481 15.9169 0.967611 16.666C1.59274 17.4151 2.46092 17.921 3.42083 18.0957L8.65917 19.0482C9.5458 19.2093 10.4542 19.2093 11.3408 19.0482L16.5833 18.0957C17.5425 17.9201 18.4097 17.4138 19.034 16.6648C19.6583 15.9158 20.0001 14.9716 20 13.9965V5.00233C20.0004 4.39186 19.8662 3.78883 19.6069 3.23615C19.3476 2.68348 18.9697 2.19477 18.5 1.80483Z" fill="#1FA45B"/>
</g>
<defs>
<clipPath id="clip0_111_11606">
<rect width="20" height="20" fill="white"/>
</clipPath>
</defs>
</svg>
