<svg width="20" height="20" viewBox="0 0 20 20" fill="none" xmlns="http://www.w3.org/2000/svg">
<path d="M10 12.4922C8.6193 12.4922 7.5 13.6115 7.5 14.9922V19.9922H12.5V14.9922C12.5 13.6115 11.3807 12.4922 10 12.4922Z" fill="#1FA45B"/>
<path d="M14.1667 14.9954V19.9954H17.5C18.8807 19.9954 20 18.8761 20 17.4954V9.89454C20.0002 9.46161 19.832 9.04559 19.5308 8.73454L12.4492 1.07868C11.1996 -0.273273 9.09074 -0.356281 7.73879 0.89325C7.67457 0.952625 7.6127 1.01446 7.55336 1.07868L0.48418 8.73204C0.173945 9.04438 -0.000117128 9.4668 5.9134e-08 9.90704V17.4954C5.9134e-08 18.8761 1.1193 19.9954 2.5 19.9954H5.83332V14.9954C5.84891 12.723 7.68355 10.8674 9.89867 10.814C12.1879 10.7587 14.1492 12.6459 14.1667 14.9954Z" fill="#1FA45B"/>
<path d="M10 12.4922C8.6193 12.4922 7.5 13.6115 7.5 14.9922V19.9922H12.5V14.9922C12.5 13.6115 11.3807 12.4922 10 12.4922Z" fill="#1FA45B"/>
</svg>
