      <svg width="20" height="20" viewBox="0 0 20 20" fill="none" xmlns="http://www.w3.org/2000/svg">
<g clip-path="url(#clip0_111_10766)">
<path d="M4.88953 12.9889C4.01065 12.1771 3.34027 11.1655 2.93513 10.0397C2.52999 8.91394 2.40202 7.70713 2.56203 6.52143C2.72026 5.31915 3.16765 4.17316 3.86586 3.18169C4.56407 2.19022 5.49228 1.38283 6.57093 0.828736C7.64958 0.274639 8.84651 -0.00964488 10.0591 0.000249717C11.2717 0.0101443 12.4638 0.313923 13.5333 0.885548C14.6028 1.45717 15.5177 2.2796 16.1996 3.28233C16.8816 4.28506 17.3102 5.4382 17.4488 6.6429C17.5874 7.8476 17.4318 9.06794 16.9953 10.1993C16.5589 11.3307 15.8546 12.3394 14.9429 13.1389C14.3558 13.6437 13.8999 14.2834 13.6145 15.0031H10.8329V9.01643C11.3186 8.84469 11.7395 8.52707 12.0378 8.10701C12.3361 7.68695 12.4974 7.18498 12.4995 6.66976C12.4995 6.44875 12.4117 6.23678 12.2555 6.0805C12.0992 5.92422 11.8872 5.83643 11.6662 5.83643C11.4452 5.83643 11.2332 5.92422 11.0769 6.0805C10.9207 6.23678 10.8329 6.44875 10.8329 6.66976C10.8329 6.89077 10.7451 7.10274 10.5888 7.25902C10.4325 7.4153 10.2205 7.50309 9.99953 7.50309C9.77852 7.50309 9.56656 7.4153 9.41028 7.25902C9.254 7.10274 9.1662 6.89077 9.1662 6.66976C9.1662 6.44875 9.0784 6.23678 8.92212 6.0805C8.76584 5.92422 8.55388 5.83643 8.33287 5.83643C8.11185 5.83643 7.89989 5.92422 7.74361 6.0805C7.58733 6.23678 7.49953 6.44875 7.49953 6.66976C7.50167 7.18498 7.66294 7.68695 7.96127 8.10701C8.25961 8.52707 8.68044 8.84469 9.1662 9.01643V15.0031H6.30203C5.98345 14.2369 5.50138 13.5495 4.88953 12.9889ZM6.6662 16.6698V16.9281C6.66708 17.7434 6.99134 18.525 7.56782 19.1015C8.1443 19.678 8.92593 20.0022 9.7412 20.0031H10.2579C11.0731 20.0022 11.8548 19.678 12.4312 19.1015C13.0077 18.525 13.332 17.7434 13.3329 16.9281V16.6698H6.6662Z" fill="#1FA45B"/>
</g>
<defs>
<clipPath id="clip0_111_10766">
<rect width="20" height="20" fill="white"/>
</clipPath>
</defs>
</svg>
