<svg width="20" height="20" viewBox="0 0 20 20" fill="none" xmlns="http://www.w3.org/2000/svg">
<g clip-path="url(#clip0_111_10908)">
<path d="M13.3333 7.5V5.83333H6.66667V7.5C5.562 7.50132 4.50296 7.94073 3.72185 8.72185C2.94073 9.50296 2.50132 10.562 2.5 11.6667V15.8333C2.50132 16.938 2.94073 17.997 3.72185 18.7782C4.50296 19.5593 5.562 19.9987 6.66667 20H13.3333C14.438 19.9987 15.497 19.5593 16.2782 18.7782C17.0593 17.997 17.4987 16.938 17.5 15.8333V11.6667C17.4987 10.562 17.0593 9.50296 16.2782 8.72185C15.497 7.94073 14.438 7.50132 13.3333 7.5ZM12.5 14.1667H10.8333V15.8333C10.8333 16.0543 10.7455 16.2663 10.5893 16.4226C10.433 16.5789 10.221 16.6667 10 16.6667C9.77899 16.6667 9.56702 16.5789 9.41074 16.4226C9.25446 16.2663 9.16667 16.0543 9.16667 15.8333V14.1667H7.5C7.27899 14.1667 7.06702 14.0789 6.91074 13.9226C6.75446 13.7663 6.66667 13.5543 6.66667 13.3333C6.66667 13.1123 6.75446 12.9004 6.91074 12.7441C7.06702 12.5878 7.27899 12.5 7.5 12.5H9.16667V10.8333C9.16667 10.6123 9.25446 10.4004 9.41074 10.2441C9.56702 10.0878 9.77899 10 10 10C10.221 10 10.433 10.0878 10.5893 10.2441C10.7455 10.4004 10.8333 10.6123 10.8333 10.8333V12.5H12.5C12.721 12.5 12.933 12.5878 13.0893 12.7441C13.2455 12.9004 13.3333 13.1123 13.3333 13.3333C13.3333 13.5543 13.2455 13.7663 13.0893 13.9226C12.933 14.0789 12.721 14.1667 12.5 14.1667ZM12.9167 4.16667H7.08333C6.5308 4.16667 6.0009 3.94717 5.61019 3.55647C5.21949 3.16577 5 2.63587 5 2.08333C5 1.5308 5.21949 1.0009 5.61019 0.610194C6.0009 0.219493 6.5308 0 7.08333 0L12.9167 0C13.4692 0 13.9991 0.219493 14.3898 0.610194C14.7805 1.0009 15 1.5308 15 2.08333C15 2.63587 14.7805 3.16577 14.3898 3.55647C13.9991 3.94717 13.4692 4.16667 12.9167 4.16667Z" fill="#1FA45B"/>
</g>
<defs>
<clipPath id="clip0_111_10908">
<rect width="20" height="20" fill="white"/>
</clipPath>
</defs>
</svg>
