<svg width="20" height="20" viewBox="0 0 20 20" fill="none" xmlns="http://www.w3.org/2000/svg">
<path fill-rule="evenodd" clip-rule="evenodd" d="M12.7617 1.66406C13.2037 1.66406 13.6277 1.83965 13.9402 2.15222L17.8455 6.05746C18.1581 6.37002 18.3337 6.79395 18.3337 7.23597V12.7588C18.3337 13.2008 18.1581 13.6248 17.8455 13.9373L13.9402 17.8426C13.6277 18.1551 13.2037 18.3307 12.7617 18.3307H7.2389C6.79688 18.3307 6.37295 18.1551 6.06039 17.8426L2.15515 13.9373C1.84258 13.6247 1.66699 13.2008 1.66699 12.7588V7.23597C1.66699 6.79395 1.84258 6.37002 2.15515 6.05746L6.06039 2.15222C6.37295 1.83965 6.79688 1.66406 7.2389 1.66406H12.7617ZM10.0003 12.4974C9.54008 12.4974 9.16699 12.8705 9.16699 13.3307C9.16699 13.791 9.54008 14.1641 10.0003 14.1641C10.4606 14.1641 10.8337 13.791 10.8337 13.3307C10.8337 12.8705 10.4606 12.4974 10.0003 12.4974ZM10.0003 4.9974C9.57295 4.9974 9.22073 5.3191 9.1726 5.73355L9.16699 5.83073V10.8307C9.16699 11.291 9.54008 11.6641 10.0003 11.6641C10.4277 11.6641 10.7799 11.3424 10.8281 10.9279L10.8337 10.8307V5.83073C10.8337 5.3705 10.4606 4.9974 10.0003 4.9974Z" fill="#1FA45B"/>
</svg>
