<svg width="20" height="20" viewBox="0 0 20 20" fill="none" xmlns="http://www.w3.org/2000/svg">
<path fill-rule="evenodd" clip-rule="evenodd" d="M10.0003 1.66406C5.39795 1.66406 1.66699 5.39502 1.66699 9.9974C1.66699 14.5997 5.39795 18.3307 10.0003 18.3307C14.6027 18.3307 18.3337 14.5997 18.3337 9.9974C18.3337 5.39502 14.6027 1.66406 10.0003 1.66406ZM7.50033 9.9974C7.50033 8.61665 8.61958 7.4974 10.0003 7.4974C10.7469 7.4974 11.4162 7.8236 11.8756 8.34398C12.1801 8.68906 12.7067 8.7219 13.0517 8.41731C13.3968 8.11277 13.4297 7.58615 13.1251 7.2411C12.3628 6.37745 11.2449 5.83073 10.0003 5.83073C7.69914 5.83073 5.83366 7.69621 5.83366 9.9974C5.83366 12.2986 7.69914 14.1641 10.0003 14.1641C11.2449 14.1641 12.3628 13.6173 13.1251 12.7537C13.4297 12.4086 13.3968 11.8821 13.0517 11.5775C12.7067 11.2729 12.1801 11.3057 11.8756 11.6508C11.4162 12.1712 10.7469 12.4974 10.0003 12.4974C8.61958 12.4974 7.50033 11.3781 7.50033 9.9974Z" fill="#1FA45B"/>
</svg>

