<svg width="20" height="20" viewBox="0 0 20 20" fill="none" xmlns="http://www.w3.org/2000/svg">
<path fill-rule="evenodd" clip-rule="evenodd" d="M8.8219 1.75378C9.43856 1.13716 10.4181 1.10471 11.0729 1.65642L11.1789 1.75378L12.7618 3.33669H15.0004C15.8791 3.33669 16.5989 4.01659 16.6625 4.87897L16.6671 5.00336V7.24191L18.25 8.82481C18.8666 9.44147 18.8991 10.421 18.3474 11.0759L18.25 11.1819L16.6671 12.7648V15.0034C16.6671 15.882 15.9872 16.6019 15.1248 16.6655L15.0004 16.6701H12.7618L11.1789 18.2529C10.5623 18.8696 9.58278 18.902 8.92792 18.3503L8.8219 18.2529L7.239 16.6701H5.00041C4.12178 16.6701 3.40194 15.9901 3.33832 15.1278L3.33374 15.0034V12.7647L1.75084 11.1819C1.13423 10.5652 1.10178 9.58569 1.65349 8.93083L1.75085 8.82481L3.33374 7.24195V5.00336C3.33374 4.12472 4.01364 3.40489 4.87603 3.34126L5.00041 3.33669H7.239L8.8219 1.75378ZM12.5667 7.48882L9.02949 11.0259L7.55635 9.55281C7.23092 9.2274 6.70329 9.2274 6.37784 9.55281C6.05241 9.87823 6.05241 10.4059 6.37784 10.7313L8.38132 12.7348C8.73932 13.0927 9.31974 13.0927 9.67765 12.7348L13.7452 8.66731C14.0706 8.3419 14.0706 7.81426 13.7452 7.48882C13.4197 7.16339 12.8921 7.16339 12.5667 7.48882Z" fill="#1FA45B"/>
</svg>
