<svg width="20" height="20" viewBox="0 0 20 20" fill="none" xmlns="http://www.w3.org/2000/svg">
<path d="M16.6667 12.4974C17.1269 12.4974 17.5 12.8705 17.5 13.3307V16.6641C17.5 17.5846 16.7538 18.3307 15.8333 18.3307H4.16667C3.24619 18.3307 2.5 17.5846 2.5 16.6641V13.3307C2.5 12.8705 2.8731 12.4974 3.33333 12.4974C3.79357 12.4974 4.16667 12.8705 4.16667 13.3307V16.6641H15.8333V13.3307C15.8333 12.8705 16.2064 12.4974 16.6667 12.4974ZM10 1.66406C10.4602 1.66406 10.8333 2.03716 10.8333 2.4974V11.0329L12.9462 8.91998C13.2717 8.59448 13.7993 8.59448 14.1247 8.91998C14.4502 9.2454 14.4502 9.77306 14.1247 10.0985L10.7366 13.4866C10.3297 13.8935 9.67025 13.8935 9.26342 13.4866L5.87521 10.0985C5.54977 9.77306 5.54977 9.2454 5.87521 8.91998C6.20065 8.59448 6.72828 8.59448 7.05372 8.91998L9.16667 11.0329V2.4974C9.16667 2.03716 9.53975 1.66406 10 1.66406Z" fill="#1FA45B"/>
</svg>
