<svg width="20" height="20" viewBox="0 0 20 20" fill="none" xmlns="http://www.w3.org/2000/svg">
<path d="M10.0001 17.5C9.53983 17.5 9.16675 17.1269 9.16675 16.6667C9.16675 16.2393 9.48844 15.8871 9.9029 15.8389L10.0001 15.8333L14.1667 15.8333C14.5941 15.8333 14.9463 15.5116 14.9945 15.0972L15.0001 15L15.0001 5C15.0001 4.57262 14.6784 4.22041 14.2639 4.17227L14.1667 4.16667L10.4167 4.16667C9.9565 4.16667 9.58342 3.79358 9.58342 3.33333C9.58342 2.90596 9.90511 2.55374 10.3196 2.50561L10.4167 2.5L14.1667 2.5C15.4981 2.5 16.5865 3.54073 16.6625 4.8531L16.6667 5L16.6667 15C16.6667 16.3314 15.626 17.4197 14.3136 17.4958L14.1667 17.5L10.0001 17.5Z" fill="#1FA45B"/>
<path d="M10.5893 9.41361L8.23223 7.05658C7.90682 6.73114 7.37923 6.73114 7.05373 7.05658C6.72832 7.38202 6.72832 7.90966 7.05373 8.23509L7.98823 9.16952L3.4764 9.16952C3.01615 9.16952 2.64307 9.54261 2.64307 10.0029C2.64307 10.4631 3.01615 10.8362 3.4764 10.8362L7.98823 10.8362L7.05373 11.7706C6.72832 12.096 6.72832 12.6237 7.05373 12.9491C7.37923 13.2746 7.90682 13.2746 8.23223 12.9491L10.5893 10.5921C10.9147 10.2667 10.9147 9.73902 10.5893 9.41361Z" fill="#1FA45B"/>
</svg>
