<svg width="20" height="20" viewBox="0 0 20 20" fill="none" xmlns="http://www.w3.org/2000/svg">
<path d="M10.0002 2.5C10.4604 2.5 10.8335 2.8731 10.8335 3.33333C10.8335 3.76069 10.5118 4.11292 10.0973 4.16106L10.0002 4.16667H5.8335C5.40614 4.16667 5.05391 4.48837 5.00577 4.90282L5.00016 5V15C5.00016 15.4274 5.32187 15.7796 5.73631 15.8277L5.8335 15.8333H9.5835C10.0437 15.8333 10.4168 16.2064 10.4168 16.6667C10.4168 17.094 10.0951 17.4463 9.68068 17.4944L9.5835 17.5H5.8335C4.5021 17.5 3.41378 16.4593 3.33774 15.1469L3.3335 15V5C3.3335 3.6686 4.37427 2.58028 5.6866 2.50424L5.8335 2.5H10.0002ZM14.756 7.05372L17.1131 9.41075C17.4385 9.73617 17.4385 10.2638 17.1131 10.5892L14.756 12.9462C14.4306 13.2717 13.903 13.2717 13.5775 12.9462C13.2521 12.6208 13.2521 12.0932 13.5775 11.7677L14.512 10.8333H10.0002C9.53991 10.8333 9.16683 10.4602 9.16683 10C9.16683 9.53975 9.53991 9.16667 10.0002 9.16667H14.512L13.5775 8.23223C13.2521 7.9068 13.2521 7.37916 13.5775 7.05372C13.903 6.72828 14.4306 6.72828 14.756 7.05372Z" fill="#1FA45B"/>
</svg>
