<svg width="20" height="20" viewBox="0 0 20 20" fill="none" xmlns="http://www.w3.org/2000/svg">
<path fill-rule="evenodd" clip-rule="evenodd" d="M9.41483 1.83267C9.74493 1.70888 10.1046 1.6934 10.442 1.78625L10.5852 1.83267L16.4185 4.02017C17.0257 4.24785 17.4416 4.80475 17.4943 5.44284L17.5 5.58072V10.0497C17.5 12.8069 15.988 15.3344 13.5758 16.6424L13.3541 16.7579L10.559 18.1554C10.2462 18.3118 9.88418 18.3292 9.56044 18.2075L9.441 18.1554L6.6459 16.7579C4.17975 15.5248 2.59522 13.0421 2.50415 10.2997L2.5 10.0497V5.58072C2.5 4.93231 2.87541 4.34736 3.45435 4.07391L3.58146 4.02017L9.41483 1.83267ZM12.8608 7.19415L9.029 11.0259L7.55589 9.55273C7.23045 9.22732 6.70282 9.22732 6.37738 9.55273C6.05194 9.87815 6.05194 10.4058 6.37738 10.7312L8.38083 12.7347C8.73883 13.0927 9.31925 13.0927 9.67725 12.7347L14.0392 8.37265C14.3647 8.04722 14.3647 7.51958 14.0392 7.19415C13.7138 6.86871 13.1862 6.86871 12.8608 7.19415Z" fill="#1FA45B"/>
</svg>
