<svg width="22" height="22" viewBox="0 0 20 20" fill="none" xmlns="http://www.w3.org/2000/svg">
<path fill-rule="evenodd" clip-rule="evenodd" d="M10.0003 1.66406C5.39795 1.66406 1.66699 5.39502 1.66699 9.9974C1.66699 14.5997 5.39795 18.3307 10.0003 18.3307C14.6027 18.3307 18.3337 14.5997 18.3337 9.9974C18.3337 5.39502 14.6027 1.66406 10.0003 1.66406ZM7.08366 7.08073C7.08366 5.4699 8.38949 4.16406 10.0003 4.16406C11.6112 4.16406 12.917 5.4699 12.917 7.08073C12.917 8.69156 11.6112 9.9974 10.0003 9.9974C8.38949 9.9974 7.08366 8.69156 7.08366 7.08073ZM4.39883 13.6137C5.77277 12.4906 7.77926 11.6641 10.0003 11.6641C12.2214 11.6641 14.2279 12.4906 15.6018 13.6137C14.4144 15.4493 12.3492 16.6641 10.0003 16.6641C7.65146 16.6641 5.58631 15.4493 4.39883 13.6137Z" fill="#1FA45B"/>
</svg>
