<svg width="24" height="24" fill="none" xmlns="http://www.w3.org/2000/svg">
<path d="M16.9245 4.87353C17.3289 4.46324 17.5791 3.89588 17.5791 3.26941C17.5791 2.64294 17.3289 2.07559 16.9245 1.66529C16.72 1.45528 16.4744 1.28808 16.2026 1.17376C15.9307 1.05943 15.6382 1.00033 15.3426 1C15.3426 1 14.2271 0.997353 13.1061 2.13471C11.9852 0.997353 10.8696 1 10.8696 1C10.5741 1.00037 10.2817 1.0594 10.0099 1.17357C9.73807 1.28773 9.49246 1.45467 9.28776 1.66441C8.88333 2.07559 8.63314 2.64206 8.63314 3.26853C8.63314 3.895 8.88333 4.46324 9.28776 4.87265L11.7886 7.53737C12.4987 8.29396 13.7136 8.29403 14.4238 7.53751L16.9245 4.87353Z" fill="#1FA45B"/>
<path d="M16.8958 9.84118L14.0457 12.084C13.7277 12.3343 13.3327 12.4706 12.9255 12.4706H9.51912C9.27149 12.4706 9.07075 12.2731 9.07075 12.0294C9.07075 11.7858 9.27149 11.5882 9.51912 11.5882H12.716C12.7971 11.5882 12.8767 11.5665 12.9463 11.5255C13.0159 11.4845 13.0728 11.4256 13.1111 11.3553C13.1494 11.2849 13.1675 11.2057 13.1637 11.126C13.1598 11.0463 13.134 10.9691 13.0891 10.9026L12.2928 9.72735C12.1294 9.48542 11.9077 9.28702 11.6475 9.14985C11.3873 9.01267 11.0967 8.94099 10.8015 8.94118H5.93212C5.69429 8.94118 5.4662 9.03414 5.29803 9.19961C5.27455 9.22271 5.2394 9.26012 5.19386 9.30859C4.91317 9.60733 4.23763 10.3263 3.46606 10.7059L1 10.7059V15.1176H3.01769C4.13862 15.1176 5.1474 15.2279 5.48375 15.5588C5.8201 15.8898 6.35321 16 6.82887 16H13.2308C13.6142 16.0001 13.9933 15.9195 14.3425 15.7637C14.6917 15.6079 15.0031 15.3804 15.2556 15.0965L19.7478 10.7684C20.1959 10.3367 20.0213 9.59158 19.4264 9.39647C19.0004 9.25675 18.5456 9.22425 18.1036 9.30193C17.6615 9.37961 17.2463 9.565 16.8958 9.84118Z" fill="#1FA45B"/>
</svg>
