<svg xmlns="http://www.w3.org/2000/svg" width="50" height="50" viewBox="0 0 50 50"><g transform="translate(4698 16470)"><rect width="50" height="50" rx="10" transform="translate(-4698 -16470)" fill="#1fa45b"/><g transform="translate(-4688.479 -16455.84)"><path d="M2.248,8.768v2.657c0,.715.817,1.839.817-2.452V2.228a1.124,1.124,0,1,1,2.248,0V8.563a.41.41,0,0,0,.817,0V.9A1.124,1.124,0,1,1,8.379.9V8.461c0,.511.715.613.715,0V1.819a1.175,1.175,0,0,1,2.35,0V9.381c0,.511.715.613.715,0V4.067a1.175,1.175,0,0,1,2.35,0V16.125C14.51,23.482,0,23.686,0,13.877V8.768A1.124,1.124,0,1,1,2.248,8.768Z" transform="translate(0 0.25)" fill="#fff" fill-rule="evenodd"/><path d="M173.16,8.768v2.657c0,.715-.715,1.839-.715-2.452V2.228a1.124,1.124,0,1,0-2.248,0V8.563a.41.41,0,0,1-.817,0V.9a1.124,1.124,0,1,0-2.248,0V8.461a.409.409,0,1,1-.817,0V1.819a1.124,1.124,0,1,0-2.248,0V9.381a.409.409,0,1,1-.817,0V4.067a1.124,1.124,0,1,0-2.248,0V16.125c0,7.357,14.51,7.561,14.51-2.248V8.768A1.175,1.175,0,0,0,173.16,8.768Z" transform="translate(-144.549 0.25)" fill="#fff" fill-rule="evenodd"/></g></g></svg>