<svg width="66" height="66" viewBox="0 0 66 66" fill="none" xmlns="http://www.w3.org/2000/svg">
<rect width="66" height="66" rx="15" fill="#FFF8EA"/>
<path d="M52.6193 27.0968C52.1002 24.4729 51.0679 22.0335 49.6313 19.8877L47.5539 21.2785C46.2755 19.369 44.631 17.7245 42.7215 16.4461L44.1123 14.3687C41.9665 12.9321 39.5271 11.8998 36.9032 11.3807L36.4181 13.8332C35.3146 13.6148 34.1719 13.5 33 13.5C31.8281 13.5 30.6854 13.6148 29.5819 13.8332L29.0968 11.3807C26.4729 11.8998 24.0335 12.9321 21.8877 14.3687L23.2785 16.4461C21.369 17.7245 19.7245 19.369 18.4461 21.2785L16.3687 19.8877C14.9321 22.0335 13.8998 24.4729 13.3807 27.0968L15.8332 27.5819C15.6148 28.6854 15.5 29.8281 15.5 31C15.5 32.1719 15.6148 33.3146 15.8332 34.4181L13.3807 34.9032C13.8998 37.5271 14.9321 39.9665 16.3687 42.1123L18.4461 40.7215C19.7245 42.631 21.369 44.2755 23.2785 45.5539L21.8877 47.6313C24.0335 49.0679 26.4729 50.1002 29.0968 50.6193L29.5819 48.1669C30.6854 48.3852 31.8281 48.5 33 48.5C34.1719 48.5 35.3146 48.3852 36.4181 48.1669L36.9032 50.6193C39.5271 50.1002 41.9665 49.0679 44.1123 47.6313L42.7215 45.5539C44.631 44.2755 46.2755 42.631 47.5539 40.7215L49.6313 42.1123C51.0679 39.9665 52.1002 37.5271 52.6193 34.9032L50.1669 34.4181C50.3852 33.3146 50.5 32.1719 50.5 31C50.5 29.8281 50.3852 28.6854 50.1669 27.5819L52.6193 27.0968Z" stroke="#FFB11C" stroke-width="5" stroke-dasharray="10 10"/>
<path d="M45.9999 31.0039C45.9999 23.3039 39.3999 17.2039 31.4999 18.1039C25.4999 18.8039 20.6999 23.6039 20.0999 29.6039C19.5999 34.2039 21.4999 38.3039 24.6999 40.9039C26.0999 42.1039 26.9999 43.8039 26.9999 45.7039V46.0039H38.9999V45.9039C38.9999 44.1039 39.7999 42.3039 41.1999 41.1039C44.0999 38.7039 45.9999 35.1039 45.9999 31.0039Z" fill="#FFE0A4"/>
<path d="M39.6001 29.1969L36.6001 27.1969C36.3001 26.9969 35.8001 26.9969 35.5001 27.1969L33.0001 28.7969L30.6001 27.1969C30.3001 26.9969 29.8001 26.9969 29.5001 27.1969L26.5001 29.1969C26.3001 29.3969 26.1001 29.5969 26.1001 29.8969C26.1001 30.1969 26.1001 30.4969 26.3001 30.6969L30.1001 35.3969V45.9969H32.1001V34.9969C32.1001 34.7969 32.0001 34.5969 31.9001 34.3969L28.6001 30.2969L30.1001 29.2969L32.5001 30.8969C32.8001 31.0969 33.3001 31.0969 33.6001 30.8969L36.0001 29.2969L37.5001 30.2969L34.2001 34.3969C34.1001 34.5969 34.0001 34.7969 34.0001 34.9969V45.9969H36.0001V35.3969L39.8001 30.6969C40.0001 30.4969 40.1001 30.1969 40.0001 29.8969C39.9001 29.5969 39.8001 29.2969 39.6001 29.1969Z" fill="#FFFAF0"/>
<path d="M35 54H31C28.8 54 27 52.2 27 50V45H39V50C39 52.2 37.2 54 35 54Z" fill="#FFB11C"/>
</svg>
