<svg width="42" height="42" viewBox="0 0 42 42" fill="none" xmlns="http://www.w3.org/2000/svg">
<circle cx="21" cy="21" r="20" fill="#F7F8FA" stroke="#868686" stroke-width="2"/>
<path fill-rule="evenodd" clip-rule="evenodd" d="M20.0969 13.1033C19.7649 13.1589 19.0837 13.4045 18.6787 13.6147C17.7675 14.0878 16.993 14.8833 16.5513 15.7999C16.1289 16.6764 16.0676 16.9651 16.0715 18.0573C16.0748 18.9648 16.0872 19.0594 16.271 19.5837C16.8039 21.1036 17.9297 22.2164 19.475 22.7506C20.0254 22.9408 20.1247 22.9546 20.9671 22.9568C21.6628 22.9586 21.9582 22.9321 22.2564 22.8411C23.9592 22.3216 25.1789 21.1754 25.7227 19.5837C25.8796 19.1245 25.9191 18.8867 25.9445 18.2508C26.0058 16.712 25.5734 15.584 24.512 14.5143C23.8005 13.7971 23.0034 13.3522 22.063 13.1475C21.704 13.0693 20.4661 13.0415 20.0969 13.1033ZM20.1478 23.8332C19.4434 23.8959 18.3932 24.1565 17.6709 24.4478C16.1164 25.0749 14.6011 26.312 13.6869 27.7004C13.3489 28.2137 12.8574 29.18 12.7473 29.5476C12.6686 29.8105 12.671 29.8186 12.885 30.0167C13.2735 30.3763 14.2496 31.0905 14.8167 31.4301C15.9902 32.1328 17.1814 32.5907 18.6465 32.9023C19.4171 33.0662 19.6012 33.0807 20.9349 33.0829C22.4548 33.0853 22.8134 33.0466 23.9968 32.7518C25.8309 32.295 27.7258 31.2911 29.0382 30.0806L29.3303 29.8112L29.2514 29.5456C29.208 29.3994 29.042 29.0186 28.8824 28.6994C27.9938 26.921 26.6798 25.608 24.8983 24.7179C23.9032 24.2207 22.9519 23.9504 21.7822 23.8326C21.0552 23.7593 20.9785 23.7594 20.1478 23.8332Z" fill="#868686"/>
</svg>