<svg width="24" height="24" viewBox="0 0 24 24" fill="none" xmlns="http://www.w3.org/2000/svg">
<path d="M20.3333 19.3333L16 15M18 10C18 10.9193 17.8189 11.8295 17.4672 12.6788C17.1154 13.5281 16.5998 14.2997 15.9497 14.9497C15.2997 15.5998 14.5281 16.1154 13.6788 16.4672C12.8295 16.8189 11.9193 17 11 17C10.0807 17 9.1705 16.8189 8.32122 16.4672C7.47194 16.1154 6.70026 15.5998 6.05025 14.9497C5.40024 14.2997 4.88463 13.5281 4.53284 12.6788C4.18106 11.8295 4 10.9193 4 10C4 8.14348 4.7375 6.36301 6.05025 5.05025C7.36301 3.7375 9.14348 3 11 3C12.8565 3 14.637 3.7375 15.9497 5.05025C17.2625 6.36301 18 8.14348 18 10Z" stroke="#ffffff" stroke-width="1.5" stroke-linecap="round" stroke-linejoin="round"/>
</svg>