<svg width="35" height="35" viewBox="0 0 35 35" fill="none" xmlns="http://www.w3.org/2000/svg">
<path fill-rule="evenodd" clip-rule="evenodd" d="M21.6548 8.04236C21.2325 8.18651 21.0169 8.65425 21.1873 9.05659C21.2244 9.1441 21.4825 9.42884 21.861 9.79958L22.4745 10.4007L17.1603 10.4008C13.6214 10.4009 11.7287 10.4146 11.4945 10.4418C9.89104 10.6286 8.56113 11.7691 8.12119 13.3348L8.01803 13.7019L8.00513 16.736C7.99157 19.9194 7.99302 19.9505 8.16391 20.1853C8.28219 20.3477 8.62593 20.49 8.84265 20.4661C9.08044 20.4399 9.35794 20.264 9.45884 20.0754C9.53922 19.9253 9.5409 19.8729 9.56083 16.8887C9.57959 14.0838 9.58651 13.8387 9.65251 13.6447C9.92238 12.8514 10.5037 12.2834 11.3186 12.017C11.5226 11.9503 11.8106 11.9461 17.0021 11.9361L22.4707 11.9255L21.8063 12.5847C21.2282 13.1582 21.1352 13.2675 21.0903 13.4254C21.0222 13.6652 21.0575 13.8893 21.1933 14.0804C21.4067 14.3804 21.8273 14.4902 22.1603 14.3329C22.263 14.2842 22.8043 13.7822 23.6929 12.9112C25.1377 11.495 25.1531 11.4764 25.1512 11.1449C25.1497 10.8665 25.0263 10.7204 23.6946 9.41988C22.3428 8.09968 22.2116 7.99534 21.9088 8.00015C21.8336 8.00133 21.7193 8.02034 21.6548 8.04236ZM26.9517 13.58C26.7679 13.6372 26.5478 13.8615 26.4898 14.0507C26.4538 14.1681 26.4419 14.9235 26.4419 17.0874C26.4419 19.8293 26.4381 19.982 26.3648 20.2621C26.149 21.0863 25.5437 21.708 24.6833 21.9893C24.4793 22.0561 24.1914 22.0602 18.9998 22.0703L13.5312 22.0809L14.1956 21.4216C14.7737 20.8481 14.8667 20.7388 14.9116 20.581C15.0934 19.9406 14.4486 19.3936 13.8391 19.6712C13.7356 19.7184 13.2188 20.1983 12.3091 21.092C10.8646 22.5111 10.8489 22.5302 10.8508 22.8614C10.8523 23.1413 10.9735 23.2843 12.3267 24.6024C13.4335 25.6805 13.6733 25.896 13.8291 25.9527C14.2987 26.1236 14.8178 25.8117 14.8652 25.3302C14.8987 24.9893 14.8419 24.9005 14.1581 24.2258L13.5296 23.6057H18.8437C22.2883 23.6057 24.2743 23.5917 24.489 23.5659C25.3889 23.458 26.1884 23.0778 26.8265 22.4547C27.3359 21.9571 27.6857 21.3648 27.8818 20.6674L27.9839 20.3044L27.9964 17.2703C28.0059 14.9547 27.9975 14.1962 27.9608 14.0672C27.8468 13.6663 27.3872 13.4444 26.9517 13.58Z" fill="#fff" fill-opacity="0.6"/>
</svg>
