<svg width="27" height="27" viewBox="0 0 27 27" fill="none" xmlns="http://www.w3.org/2000/svg">
<path d="M5.70711 12.2929C5.31658 11.9024 4.68342 11.9024 4.29289 12.2929C3.90237 12.6834 3.90237 13.3166 4.29289 13.7071L5.70711 12.2929ZM9 17L8.29289 17.7071C8.68342 18.0976 9.31658 18.0976 9.70711 17.7071L9 17ZM19.7071 7.70711C20.0976 7.31658 20.0976 6.68342 19.7071 6.29289C19.3166 5.90237 18.6834 5.90237 18.2929 6.29289L19.7071 7.70711ZM4.29289 13.7071L8.29289 17.7071L9.70711 16.2929L5.70711 12.2929L4.29289 13.7071ZM14.7071 12.7071L19.7071 7.70711L18.2929 6.29289L13.2929 11.2929L14.7071 12.7071ZM13.4616 13.9527L14.7071 12.7071L13.2929 11.2929L12.0473 12.5384L13.4616 13.9527ZM9.70711 17.7071L11.2071 16.2071L9.79289 14.7929L8.29289 16.2929L9.70711 17.7071Z" fill="#393939" fill-opacity="0.6"/>
<path d="M10 13L14 17L24 7" stroke="#393939" stroke-opacity="0.6" stroke-width="2" stroke-linecap="round" stroke-linejoin="round"/>
</svg>
