<!-- <svg width="24" height="24" viewBox="0 0 24 24" fill="none" xmlns="http://www.w3.org/2000/svg">
<path d="M2 3H8C9.06087 3 10.0783 3.42143 10.8284 4.17157C11.5786 4.92172 12 5.93913 12 7V21C12 20.2044 11.6839 19.4413 11.1213 18.8787C10.5587 18.3161 9.79565 18 9 18H2V3Z" stroke="#868686" stroke-width="1.5" stroke-linecap="round"/>
<path d="M22 3H16C14.9391 3 13.9217 3.42143 13.1716 4.17157C12.4214 4.92172 12 5.93913 12 7V21C12 20.2044 12.3161 19.4413 12.8787 18.8787C13.4413 18.3161 14.2044 18 15 18H22V3Z" stroke="#868686" stroke-width="1.5" stroke-linecap="round"/>
</svg> -->


<svg width="20" height="20" viewBox="0 0 20 20" fill="none" xmlns="http://www.w3.org/2000/svg">
<g clip-path="url(#clip0_111_10922)">
<path d="M18.5 1.80483C18.0315 1.4131 17.4826 1.12932 16.8921 0.973631C16.3016 0.817943 15.684 0.794168 15.0833 0.903993L11.8983 1.48233C11.163 1.61736 10.4944 1.99568 10 2.55649C9.5043 1.99471 8.8338 1.61631 8.09667 1.48233L4.91667 0.903993C4.31596 0.794072 3.69844 0.817535 3.10781 0.972723C2.51718 1.12791 1.96789 1.41103 1.4988 1.80204C1.02972 2.19305 0.652322 2.68238 0.393318 3.23542C0.134315 3.78845 4.0677e-05 4.39165 0 5.00233L0 13.9965C4.78799e-05 14.9722 0.342481 15.9169 0.967611 16.666C1.59274 17.4151 2.46092 17.921 3.42083 18.0957L8.65917 19.0482C9.5458 19.2093 10.4542 19.2093 11.3408 19.0482L16.5833 18.0957C17.5425 17.9201 18.4097 17.4138 19.034 16.6648C19.6583 15.9158 20.0001 14.9716 20 13.9965V5.00233C20.0004 4.39186 19.8662 3.78883 19.6069 3.23615C19.3476 2.68348 18.9697 2.19477 18.5 1.80483ZM9.16667 17.4423C9.09667 17.4323 9.02667 17.4207 8.95667 17.4082L3.71917 16.4565C3.14314 16.3517 2.62216 16.048 2.24707 15.5985C1.87198 15.1489 1.66658 14.582 1.66667 13.9965V5.00233C1.66667 4.33929 1.93006 3.7034 2.3989 3.23456C2.86774 2.76572 3.50363 2.50233 4.16667 2.50233C4.31758 2.50269 4.46816 2.51635 4.61667 2.54316L7.8 3.12649C8.18301 3.19658 8.52939 3.39855 8.77904 3.69736C9.02868 3.99617 9.16582 4.37296 9.16667 4.76233V17.4423ZM18.3333 13.9965C18.3334 14.582 18.128 15.1489 17.7529 15.5985C17.3778 16.048 16.8569 16.3517 16.2808 16.4565L11.0433 17.4082C10.9733 17.4207 10.9033 17.4323 10.8333 17.4423V4.76233C10.8333 4.372 10.9702 3.99404 11.2203 3.69433C11.4703 3.39463 11.8176 3.19219 12.2017 3.12233L15.3858 2.53899C15.7464 2.47339 16.117 2.48787 16.4714 2.58142C16.8258 2.67497 17.1553 2.84529 17.4365 3.08033C17.7178 3.31537 17.9439 3.60937 18.0988 3.94151C18.2538 4.27365 18.3339 4.63581 18.3333 5.00233V13.9965Z" fill="#868686"/>
</g>
<defs>
<clipPath id="clip0_111_10922">
<rect width="20" height="20" fill="white"/>
</clipPath>
</defs>
</svg>
