<svg width="24" height="24" fill="none" xmlns="http://www.w3.org/2000/svg">
<path d="M18.2818 19.6935V18.155C18.2818 17.339 17.9576 16.5564 17.3806 15.9793C16.8036 15.4023 16.0209 15.0781 15.2049 15.0781H9.05104C8.23499 15.0781 7.45237 15.4023 6.87533 15.9793C6.2983 16.5564 5.97412 17.339 5.97412 18.155V19.6935" stroke="#868686"  stroke-width="1.28205" stroke-linecap="round"/>
<path d="M12.1277 12.0015C13.827 12.0015 15.2046 10.6239 15.2046 8.92458C15.2046 7.22524 13.827 5.84766 12.1277 5.84766C10.4284 5.84766 9.05078 7.22524 9.05078 8.92458C9.05078 10.6239 10.4284 12.0015 12.1277 12.0015Z" stroke="#868686" stroke-width="1.28205" stroke-linecap="round"/>
<circle cx="12.1279" cy="12" r="10" stroke="#868686" stroke-width="1.28205" stroke-linecap="round"/>
</svg>
