<svg width="48" height="48" viewBox="0 0 48 48" fill="none" xmlns="http://www.w3.org/2000/svg">
<path fill-rule="evenodd" clip-rule="evenodd" d="M30.6274 4C31.6882 4 32.7058 4.42142 33.4558 5.17158L42.8284 14.5442C43.5786 15.2943 44 16.3117 44 17.3726V30.6274C44 31.6882 43.5786 32.7058 42.8284 33.4558L33.4558 42.8284C32.7056 43.5786 31.6882 44 30.6274 44H17.3726C16.3117 44 15.2943 43.5786 14.5442 42.8284L5.17158 33.4558C4.42142 32.7056 4 31.6882 4 30.6274V17.3726C4 16.3117 4.42142 15.2943 5.17158 14.5442L14.5442 5.17158C15.2943 4.42142 16.3117 4 17.3726 4H30.6274ZM24 30C22.8954 30 22 30.8954 22 32C22 33.1046 22.8954 34 24 34C25.1046 34 26 33.1046 26 32C26 30.8954 25.1046 30 24 30ZM24 12C22.9743 12 22.129 12.7721 22.0135 13.7668L22 14V26C22 27.1046 22.8954 28 24 28C25.0257 28 25.871 27.2279 25.9865 26.2332L26 26V14C26 12.8954 25.1046 12 24 12Z" fill="#1FA45B"/>
</svg>
