<svg width="114" height="114" viewBox="0 0 114 114" fill="none" xmlns="http://www.w3.org/2000/svg">
<path d="M11.761 94.6212C21.6698 91.2601 40.3009 86.8948 55.8828 94.4359C56.5872 94.7768 57.4128 94.7768 58.1172 94.4359C73.6991 86.8948 92.3302 91.2601 102.239 94.6212C105.551 95.7448 109.25 93.3238 109.25 89.8261V37.9037C109.25 35.0761 107.589 32.4761 104.897 31.6121C90.7936 27.0861 71.0344 27.4968 57.9577 32.8442C57.3428 33.0957 56.6572 33.0957 56.0423 32.8442C42.9656 27.4968 23.2064 27.0861 9.10323 31.6121C6.41087 32.4761 4.75 35.0761 4.75 37.9037V89.8261C4.75 93.3238 8.44875 95.7448 11.761 94.6212Z" fill="#0EC7C1"/>
<path d="M96.9357 80.5937C77.8197 78.9525 70.0775 82.8757 59.3342 88.9317C57.8854 89.7484 56.1146 89.7484 54.6658 88.9317C43.9225 82.8757 36.1803 78.9525 17.0643 80.5937C15.5683 80.7221 14.25 79.6286 14.25 78.2162V24.0006C14.25 21.6374 16.1097 19.6218 18.6112 19.3903C36.6068 17.7248 44.2168 21.5724 54.6654 27.4606C56.1143 28.2771 57.8857 28.2771 59.3346 27.4606C69.7832 21.5724 77.3932 17.7248 95.3888 19.3903C97.8903 19.6218 99.75 21.6374 99.75 24.0006V78.2162C99.75 79.6286 98.4317 80.7221 96.9357 80.5937Z" fill="#9FE9E6"/>
<path d="M54.625 27.4375C54.6385 27.4451 54.6519 27.4527 54.6654 27.4603C56.1143 28.2768 57.8857 28.2768 59.3346 27.4603C59.3481 27.4527 59.3615 27.4451 59.375 27.4375V88.9083C59.3614 88.916 59.3478 88.9237 59.3342 88.9313C57.8854 89.748 56.1146 89.748 54.6658 88.9313C54.6522 88.9237 54.6386 88.916 54.625 88.9083V27.4375Z" fill="#0EC7C1"/>
</svg>
