<svg width="48" height="48" viewBox="0 0 48 48" fill="none" xmlns="http://www.w3.org/2000/svg">
<path fill-rule="evenodd" clip-rule="evenodd" d="M24 4C12.9543 4 4 12.9543 4 24C4 35.0456 12.9543 44 24 44C35.0456 44 44 35.0456 44 24C44 12.9543 35.0456 4 24 4ZM18 24C18 20.6862 20.6862 18 24 18C25.7918 18 27.3982 18.7829 28.5006 20.0318C29.2314 20.86 30.4954 20.9388 31.3234 20.2078C32.1516 19.4769 32.2304 18.213 31.4994 17.3849C29.67 15.3121 26.987 14 24 14C18.4772 14 14 18.4772 14 24C14 29.5228 18.4772 34 24 34C26.987 34 29.67 32.6878 31.4994 30.6152C32.2304 29.787 32.1516 28.5232 31.3234 27.7922C30.4954 27.0612 29.2314 27.14 28.5006 27.9682C27.3982 29.2172 25.7918 30 24 30C20.6862 30 18 27.3138 18 24Z" fill="#1FA45B"/>
</svg>
