<svg width="28" height="28" viewBox="0 0 28 28" fill="none" xmlns="http://www.w3.org/2000/svg">
<path d="M9.33366 18.6641H7.00033C6.38149 18.6641 5.78799 18.4182 5.35041 17.9806C4.91282 17.5431 4.66699 16.9496 4.66699 16.3307V6.9974C4.66699 6.37856 4.91282 5.78506 5.35041 5.34748C5.78799 4.9099 6.38149 4.66406 7.00033 4.66406H16.3337C16.9525 4.66406 17.546 4.9099 17.9836 5.34748C18.4212 5.78506 18.667 6.37856 18.667 6.9974V9.33073M11.667 23.3307H21.0003C21.6192 23.3307 22.2127 23.0849 22.6502 22.6473C23.0878 22.2097 23.3337 21.6162 23.3337 20.9974V11.6641C23.3337 11.0452 23.0878 10.4517 22.6502 10.0141C22.2127 9.57656 21.6192 9.33073 21.0003 9.33073H11.667C11.0482 9.33073 10.4547 9.57656 10.0171 10.0141C9.57949 10.4517 9.33366 11.0452 9.33366 11.6641V20.9974C9.33366 21.6162 9.57949 22.2097 10.0171 22.6473C10.4547 23.0849 11.0482 23.3307 11.667 23.3307Z" stroke="#868686" stroke-width="1.5" stroke-linecap="round" stroke-linejoin="round"/>
</svg>
