<svg width="22" height="24" viewBox="0 0 22 24" fill="none" xmlns="http://www.w3.org/2000/svg">
<path d="M1.66699 6.16667H20.3337M19.167 6.16667L18.1555 20.3323C18.1136 20.921 17.8502 21.4719 17.4183 21.8742C16.9864 22.2764 16.4182 22.5 15.828 22.5H6.17266C5.58249 22.5 5.01424 22.2764 4.58236 21.8742C4.15048 21.4719 3.88706 20.921 3.84516 20.3323L2.83366 6.16667H19.167ZM8.66699 10.8333V17.8333V10.8333ZM13.3337 10.8333V17.8333V10.8333ZM14.5003 6.16667V2.66667C14.5003 2.35725 14.3774 2.0605 14.1586 1.84171C13.9398 1.62292 13.6431 1.5 13.3337 1.5H8.66699C8.35757 1.5 8.06083 1.62292 7.84203 1.84171C7.62324 2.0605 7.50033 2.35725 7.50033 2.66667V6.16667H14.5003Z" stroke="#868686" stroke-width="1.5" stroke-linecap="round" stroke-linejoin="round"/>
</svg>
