<svg width="29" height="24" viewBox="0 0 29 24" fill="none" xmlns="http://www.w3.org/2000/svg">
<g clip-path="url(#clip0_57_10818)">
<path d="M29 20.9333H0V1.62933C0 1.41537 0.0411024 1.2035 0.120965 1.00582C0.200827 0.808135 0.317878 0.62852 0.465444 0.477222C0.61301 0.325925 0.788199 0.20591 0.981004 0.124028C1.17381 0.0421465 1.38045 6.79608e-07 1.58914 6.79608e-07H8.87166C9.24555 -0.000349583 9.60756 0.134702 9.89381 0.381332L13.0149 3.06667H27.4096C27.6184 3.06649 27.8251 3.1085 28.0181 3.19031C28.211 3.27211 28.3864 3.3921 28.5341 3.54342C28.6818 3.69473 28.799 3.87441 28.8789 4.07217C28.9589 4.26994 29 4.48192 29 4.696V20.9333Z" fill="#42B998"/>
<path d="M26.9792 3.86719H1.89094C1.13393 3.86719 0.520264 4.49638 0.520264 5.27252V20.8619C0.520264 21.638 1.13393 22.2672 1.89094 22.2672H26.9792C27.7362 22.2672 28.3499 21.638 28.3499 20.8619V5.27252C28.3499 4.49638 27.7362 3.86719 26.9792 3.86719Z" fill="#FCFCFC"/>
<path d="M26.576 4.39844H2.29401C1.53701 4.39844 0.92334 5.02763 0.92334 5.80377V20.5931C0.92334 21.3692 1.53701 21.9984 2.29401 21.9984H26.576C27.333 21.9984 27.9467 21.3692 27.9467 20.5931V5.80377C27.9467 5.02763 27.333 4.39844 26.576 4.39844Z" fill="#EEEFEF"/>
<path d="M29 5.08452V21.1285C29 21.5366 28.8419 21.928 28.5604 22.2165C28.279 22.5051 27.8973 22.6672 27.4993 22.6672H1.50072C1.10271 22.6672 0.720991 22.5051 0.439552 22.2165C0.158113 21.928 0 21.5366 0 21.1285V6.87252C0 6.46444 0.158113 6.07307 0.439552 5.78452C0.720991 5.49596 1.10271 5.33385 1.50072 5.33385H10.254C10.752 5.33401 11.2375 5.17355 11.6416 4.87519L12.3829 4.32585C12.787 4.02749 13.2724 3.86703 13.7705 3.86719H27.8153C28.1297 3.86789 28.4311 3.99646 28.6532 4.22468C28.8753 4.4529 29 4.76213 29 5.08452Z" fill="#5DDCB9"/>
<path d="M29 6.42046V22.4645C29 22.8725 28.8419 23.2639 28.5604 23.5525C28.279 23.841 27.8973 24.0031 27.4993 24.0031H1.50072C1.10271 24.0031 0.720991 23.841 0.439552 23.5525C0.158113 23.2639 0 22.8725 0 22.4645V8.20846C0 8.0064 0.0388156 7.80632 0.114234 7.61964C0.189652 7.43296 0.300198 7.26333 0.439552 7.12045C0.578907 6.97758 0.744335 6.86424 0.926411 6.78691C1.10849 6.70959 1.30365 6.66979 1.50072 6.66979H10.254C10.752 6.66995 11.2375 6.50949 11.6416 6.21112L12.3829 5.66179C12.787 5.36343 13.2724 5.20296 13.7705 5.20313H27.8153C28.1297 5.20383 28.4311 5.3324 28.6532 5.56062C28.8753 5.78883 29 6.09806 29 6.42046Z" fill="#309C7E"/>
<path d="M29 5.63311V21.8998C29.0014 22.1032 28.9637 22.305 28.889 22.4935C28.8143 22.682 28.7042 22.8536 28.5648 22.9985C28.4254 23.1433 28.2596 23.2586 28.0768 23.3378C27.894 23.4169 27.6978 23.4584 27.4993 23.4598H1.50076C1.10089 23.457 0.718404 23.2917 0.437112 23.0003C0.15582 22.7089 -0.00134993 22.3151 3.60554e-05 21.9051V7.44644C-0.00133488 7.24297 0.0364019 7.04123 0.111079 6.85271C0.185756 6.6642 0.295915 6.49262 0.43527 6.34776C0.574626 6.2029 0.740439 6.0876 0.923256 6.00845C1.10607 5.92929 1.30231 5.88783 1.50076 5.88644H10.2541C10.753 5.88612 11.239 5.72316 11.6417 5.42111L12.3829 4.86377C12.7856 4.56171 13.2715 4.39875 13.7705 4.39844H27.8153C28.132 4.40161 28.4345 4.53334 28.6565 4.76477C28.8786 4.99621 29.0021 5.30846 29 5.63311V5.63311Z" fill="#44C4A1"/>
</g>
<defs>
<clip-path id="clip0_57_10818">
<rect width="29" height="24" fill="white"/>
</clip-path>
</defs>
</svg>
