<svg width="36" height="40" viewBox="0 0 36 40" fill="none" xmlns="http://www.w3.org/2000/svg">
<path fill-rule="evenodd" clip-rule="evenodd" d="M16.5956 0.387482C17.3878 0.0903673 18.2509 0.0532283 19.0609 0.276065L19.4044 0.387482L33.4044 5.63748C34.8617 6.18391 35.8598 7.52046 35.9864 9.05188L36 9.3828V20.1082C36 26.7257 32.3713 32.7917 26.582 35.9308L26.0498 36.208L19.3416 39.562C18.5908 39.9375 17.722 39.9792 16.9451 39.6872L16.6584 39.562L9.95016 36.208C4.0314 33.2485 0.228534 27.2901 0.00995588 20.7082L0 20.1082V9.3828C0 7.8266 0.90099 6.42272 2.29044 5.76645L2.5955 5.63748L16.5956 0.387482ZM24.8658 13.255L15.6696 22.4512L12.1341 18.9156C11.3531 18.1346 10.0868 18.1346 9.3057 18.9156C8.52466 19.6966 8.52466 20.963 9.3057 21.744L14.114 26.5524C14.9732 27.4116 16.3662 27.4116 17.2254 26.5524L27.6942 16.0834C28.4754 15.3024 28.4754 14.0361 27.6942 13.255C26.9132 12.474 25.647 12.474 24.8658 13.255Z" fill="#1FA45B"/>
</svg>
