<svg width="59" height="60" viewBox="0 0 59 60" fill="none" xmlns="http://www.w3.org/2000/svg">
<path d="M47.3158 18.6895C48.4228 17.5482 49.1076 15.9699 49.1076 14.2272C49.1076 12.4844 48.4228 10.9062 47.3158 9.76479C46.756 9.18055 46.0839 8.71546 45.3398 8.39743C44.5958 8.0794 43.7952 7.91499 42.986 7.91406C42.986 7.91406 39.9325 7.9067 36.8644 11.0706C33.7962 7.9067 30.7427 7.91406 30.7427 7.91406C29.9338 7.91509 29.1334 8.07931 28.3894 8.39689C27.6455 8.71447 26.9732 9.17888 26.4129 9.76234C25.3059 10.9062 24.6211 12.482 24.6211 14.2247C24.6211 15.9674 25.3059 17.5482 26.4129 18.6871L35.0613 28.0524C36.0331 29.1048 37.6958 29.1048 38.6677 28.0526L47.3158 18.6895Z" fill="#F82D2D"/>
<path fill-rule="evenodd" clip-rule="evenodd" d="M47.2375 32.5036L38.7641 39.2805C38.329 39.6286 37.7883 39.8182 37.2311 39.8182H27.0464C26.3686 39.8182 25.8192 39.2687 25.8192 38.5909C25.8192 37.9131 26.3686 37.3636 27.0464 37.3636H35.7969C36.0189 37.3635 36.2367 37.3032 36.4271 37.1891C36.6175 37.075 36.7734 36.9114 36.8782 36.7156C36.983 36.5199 37.0327 36.2995 37.0221 36.0777C37.0115 35.856 36.941 35.6413 36.818 35.4565L34.6383 32.187C34.1912 31.514 33.5845 30.9621 32.8722 30.5805C32.16 30.1989 31.3644 29.9995 30.5564 30H17.2282C16.5773 30 15.9529 30.2586 15.4926 30.7189C15.4284 30.7832 15.3322 30.8872 15.2075 31.0221C14.4399 31.8524 12.5935 33.8496 10.4839 34.9063H3.72852V47.179H9.25126L9.25098 47.1818C12.3192 47.1818 15.0803 47.4885 16.001 48.4091C16.9216 49.3297 18.3808 49.6364 19.6828 49.6364H37.2058C38.2554 49.6366 39.2929 49.4125 40.2488 48.979C41.2047 48.5455 42.0568 47.9127 42.7482 47.1229L55.044 35.0829C56.2703 33.8821 55.7925 31.8093 54.1642 31.2665C52.9982 30.8779 51.7534 30.7875 50.5434 31.0035C49.3335 31.2196 48.1969 31.7354 47.2375 32.5036Z" fill="#FCABAB"/>
</svg>
