<svg width="48" height="48" viewBox="0 0 48 48" fill="none" xmlns="http://www.w3.org/2000/svg">
<path fill-rule="evenodd" clip-rule="evenodd" d="M21.1714 4.20282C22.6514 2.72294 25.0023 2.64505 26.5738 3.96916L26.8282 4.20282L30.6272 8.00181H35.9998C38.1086 8.00181 39.8361 9.63356 39.9888 11.7033L39.9998 12.0018V17.3743L43.7988 21.1733C45.2788 22.6533 45.3567 25.0042 44.0325 26.5759L43.7988 26.8303L39.9998 30.6293V36.0019C39.9998 38.1105 38.3681 39.8382 36.2983 39.9909L35.9998 40.0019H30.6272L26.8282 43.8007C25.3484 45.2807 22.9975 45.3586 21.4258 44.0344L21.1714 43.8007L17.3724 40.0019H11.9998C9.89109 40.0019 8.16348 38.37 8.01079 36.3004L7.99981 36.0019V30.6291L4.20085 26.8303C2.72099 25.3503 2.6431 22.9994 3.96721 21.4277L4.20087 21.1733L7.99981 17.3744V12.0018C7.99981 9.89308 9.63157 8.16547 11.7013 8.01278L11.9998 8.00181H17.3724L21.1714 4.20282ZM30.1588 17.9669L21.6696 26.4559L18.1341 22.9205C17.353 22.1395 16.0867 22.1395 15.3057 22.9205C14.5246 23.7015 14.5246 24.9679 15.3057 25.7489L20.114 30.5573C20.9732 31.4163 22.3662 31.4163 23.2252 30.5573L32.9872 20.7953C33.7682 20.0143 33.7682 18.748 32.9872 17.9669C32.206 17.1859 30.9398 17.1859 30.1588 17.9669Z" fill="#1FA45B"/>
</svg>
