<svg width="20" height="20" viewBox="0 0 20 20" fill="none" xmlns="http://www.w3.org/2000/svg">
<g clip-path="url(#clip0_82_11836)">
<path d="M5.83333 0H3.33333C2.44928 0 1.60143 0.35119 0.976311 0.976311C0.35119 1.60143 0 2.44928 0 3.33333L0 5.83333C0 6.71739 0.35119 7.56524 0.976311 8.19036C1.60143 8.81548 2.44928 9.16667 3.33333 9.16667H5.83333C6.71739 9.16667 7.56524 8.81548 8.19036 8.19036C8.81548 7.56524 9.16667 6.71739 9.16667 5.83333V3.33333C9.16667 2.44928 8.81548 1.60143 8.19036 0.976311C7.56524 0.35119 6.71739 0 5.83333 0V0ZM7.5 5.83333C7.5 6.27536 7.32441 6.69928 7.01184 7.01184C6.69928 7.32441 6.27536 7.5 5.83333 7.5H3.33333C2.89131 7.5 2.46738 7.32441 2.15482 7.01184C1.84226 6.69928 1.66667 6.27536 1.66667 5.83333V3.33333C1.66667 2.89131 1.84226 2.46738 2.15482 2.15482C2.46738 1.84226 2.89131 1.66667 3.33333 1.66667H5.83333C6.27536 1.66667 6.69928 1.84226 7.01184 2.15482C7.32441 2.46738 7.5 2.89131 7.5 3.33333V5.83333Z" fill="white"/>
<path d="M16.6673 0H14.1673C13.2833 0 12.4354 0.35119 11.8103 0.976311C11.1852 1.60143 10.834 2.44928 10.834 3.33333V5.83333C10.834 6.71739 11.1852 7.56524 11.8103 8.19036C12.4354 8.81548 13.2833 9.16667 14.1673 9.16667H16.6673C17.5514 9.16667 18.3992 8.81548 19.0243 8.19036C19.6495 7.56524 20.0007 6.71739 20.0007 5.83333V3.33333C20.0007 2.44928 19.6495 1.60143 19.0243 0.976311C18.3992 0.35119 17.5514 0 16.6673 0V0ZM18.334 5.83333C18.334 6.27536 18.1584 6.69928 17.8458 7.01184C17.5333 7.32441 17.1093 7.5 16.6673 7.5H14.1673C13.7253 7.5 13.3014 7.32441 12.9888 7.01184C12.6762 6.69928 12.5007 6.27536 12.5007 5.83333V3.33333C12.5007 2.89131 12.6762 2.46738 12.9888 2.15482C13.3014 1.84226 13.7253 1.66667 14.1673 1.66667H16.6673C17.1093 1.66667 17.5333 1.84226 17.8458 2.15482C18.1584 2.46738 18.334 2.89131 18.334 3.33333V5.83333Z" fill="white"/>
<path d="M5.83333 10.8333H3.33333C2.44928 10.8333 1.60143 11.1844 0.976311 11.8096C0.35119 12.4347 0 13.2825 0 14.1666L0 16.6666C0 17.5506 0.35119 18.3985 0.976311 19.0236C1.60143 19.6487 2.44928 19.9999 3.33333 19.9999H5.83333C6.71739 19.9999 7.56524 19.6487 8.19036 19.0236C8.81548 18.3985 9.16667 17.5506 9.16667 16.6666V14.1666C9.16667 13.2825 8.81548 12.4347 8.19036 11.8096C7.56524 11.1844 6.71739 10.8333 5.83333 10.8333ZM7.5 16.6666C7.5 17.1086 7.32441 17.5325 7.01184 17.8451C6.69928 18.1577 6.27536 18.3333 5.83333 18.3333H3.33333C2.89131 18.3333 2.46738 18.1577 2.15482 17.8451C1.84226 17.5325 1.66667 17.1086 1.66667 16.6666V14.1666C1.66667 13.7246 1.84226 13.3006 2.15482 12.9881C2.46738 12.6755 2.89131 12.4999 3.33333 12.4999H5.83333C6.27536 12.4999 6.69928 12.6755 7.01184 12.9881C7.32441 13.3006 7.5 13.7246 7.5 14.1666V16.6666Z" fill="white"/>
<path d="M16.6673 10.8333H14.1673C13.2833 10.8333 12.4354 11.1844 11.8103 11.8096C11.1852 12.4347 10.834 13.2825 10.834 14.1666V16.6666C10.834 17.5506 11.1852 18.3985 11.8103 19.0236C12.4354 19.6487 13.2833 19.9999 14.1673 19.9999H16.6673C17.5514 19.9999 18.3992 19.6487 19.0243 19.0236C19.6495 18.3985 20.0007 17.5506 20.0007 16.6666V14.1666C20.0007 13.2825 19.6495 12.4347 19.0243 11.8096C18.3992 11.1844 17.5514 10.8333 16.6673 10.8333ZM18.334 16.6666C18.334 17.1086 18.1584 17.5325 17.8458 17.8451C17.5333 18.1577 17.1093 18.3333 16.6673 18.3333H14.1673C13.7253 18.3333 13.3014 18.1577 12.9888 17.8451C12.6762 17.5325 12.5007 17.1086 12.5007 16.6666V14.1666C12.5007 13.7246 12.6762 13.3006 12.9888 12.9881C13.3014 12.6755 13.7253 12.4999 14.1673 12.4999H16.6673C17.1093 12.4999 17.5333 12.6755 17.8458 12.9881C18.1584 13.3006 18.334 13.7246 18.334 14.1666V16.6666Z" fill="white"/>
</g>
<defs>
<clipPath id="clip0_82_11836">
<rect width="20" height="20" fill="white"/>
</clipPath>
</defs>
</svg>
