<svg width="20" height="20" viewBox="0 0 20 20" fill="none" xmlns="http://www.w3.org/2000/svg">
<g clip-path="url(#clip0_82_11897)">
<path d="M20 13.3334V17.5C20 18.1631 19.7366 18.799 19.2678 19.2678C18.7989 19.7366 18.163 20 17.5 20H13.3333C12.1642 19.9988 11.016 19.6902 10.0039 19.1052C8.99172 18.5201 8.15121 17.6792 7.56667 16.6667C8.19489 16.6622 8.82098 16.5929 9.435 16.46C9.90262 17.0447 10.4958 17.5167 11.1707 17.841C11.8455 18.1653 12.5846 18.3336 13.3333 18.3334H17.5C17.721 18.3334 17.933 18.2456 18.0893 18.0893C18.2455 17.933 18.3333 17.721 18.3333 17.5V13.3334C18.3331 12.5844 18.1643 11.8451 17.8395 11.1702C17.5146 10.4954 17.042 9.90232 16.4567 9.43503C16.5907 8.82113 16.6611 8.19504 16.6667 7.5667C17.6791 8.15124 18.5201 8.99175 19.1051 10.0039C19.6902 11.0161 19.9988 12.1643 20 13.3334ZM14.9808 8.04253C15.0588 6.9689 14.9047 5.89107 14.529 4.88228C14.1534 3.87349 13.565 2.95738 12.8038 2.19621C12.0426 1.43504 11.1265 0.84664 10.1178 0.470994C9.10896 0.0953475 8.03113 -0.0587419 6.9575 0.0191962C5.05493 0.236473 3.29744 1.14184 2.01598 2.56482C0.734522 3.98779 0.0175226 5.83017 0 7.74503L0 11.945C0 14.055 1.25583 15 2.5 15H7.25C9.16567 14.9835 11.0092 14.267 12.4332 12.9855C13.8571 11.7039 14.7633 9.94588 14.9808 8.04253ZM11.625 3.37586C12.2166 3.96878 12.674 4.68186 12.9661 5.46685C13.2582 6.25184 13.3784 7.09043 13.3183 7.92586C13.1405 9.41226 12.4254 10.7824 11.3078 11.7783C10.1901 12.7742 8.74699 13.3273 7.25 13.3334H2.5C1.72667 13.3334 1.66667 12.2709 1.66667 11.945V7.74503C1.67361 6.24868 2.22721 4.80645 3.22326 3.68976C4.21932 2.57307 5.58916 1.85892 7.075 1.6817C7.21333 1.6717 7.35167 1.6667 7.49 1.6667C8.25772 1.66598 9.01807 1.81656 9.72757 2.10983C10.4371 2.40309 11.0818 2.8333 11.625 3.37586Z" fill="white"/>
</g>
<defs>
<clipPath id="clip0_82_11897">
<rect width="20" height="20" fill="white"/>
</clipPath>
</defs>
</svg>
