<svg width="20" height="20" viewBox="0 0 20 20" fill="none" xmlns="http://www.w3.org/2000/svg">
<g clip-path="url(#clip0_82_11919)">
<path d="M14.9955 1.90499C13.9784 0.996274 12.7326 0.382141 11.3925 0.128681C10.0523 -0.124779 8.66831 -0.00797007 7.38956 0.466538C6.1108 0.941045 4.98566 1.75529 4.1352 2.82163C3.28475 3.88798 2.74118 5.16606 2.56301 6.51832C2.40299 7.70403 2.53097 8.91083 2.93611 10.0366C3.34125 11.1624 4.01163 12.174 4.89051 12.9858C5.43401 13.4624 5.87258 14.0468 6.17841 14.7018C6.48425 15.3567 6.65069 16.0681 6.66718 16.7908V16.925C6.66806 17.7403 6.99231 18.5219 7.5688 19.0984C8.14528 19.6749 8.92691 19.9991 9.74218 20H10.2588C11.0741 19.9991 11.8557 19.6749 12.4322 19.0984C13.0087 18.5219 13.333 17.7403 13.3338 16.925V16.4675C13.3463 15.8287 13.4966 15.2002 13.7745 14.6248C14.0524 14.0495 14.4513 13.541 14.9438 13.1342C15.7427 12.4345 16.3837 11.5731 16.8245 10.6071C17.2653 9.64097 17.4957 8.59226 17.5006 7.53038C17.5055 6.46851 17.2847 5.41771 16.8528 4.44762C16.4209 3.47752 15.7879 2.61027 14.9955 1.90332V1.90499ZM10.2588 18.3333H9.74218C9.3688 18.3329 9.01084 18.1844 8.74682 17.9203C8.4828 17.6563 8.33428 17.2984 8.33384 16.925C8.33384 16.925 8.32801 16.7083 8.32718 16.6667H11.6672V16.925C11.6667 17.2984 11.5182 17.6563 11.2542 17.9203C10.9902 18.1844 10.6322 18.3329 10.2588 18.3333ZM13.8422 11.8825C12.8934 12.7054 12.2082 13.7898 11.8722 15H10.8338V9.01332C11.3196 8.84159 11.7404 8.52396 12.0388 8.1039C12.3371 7.68385 12.4984 7.18187 12.5005 6.66666C12.5005 6.44564 12.4127 6.23368 12.2564 6.0774C12.1002 5.92112 11.8882 5.83332 11.6672 5.83332C11.4462 5.83332 11.2342 5.92112 11.0779 6.0774C10.9216 6.23368 10.8338 6.44564 10.8338 6.66666C10.8338 6.88767 10.746 7.09963 10.5898 7.25591C10.4335 7.41219 10.2215 7.49999 10.0005 7.49999C9.7795 7.49999 9.56754 7.41219 9.41125 7.25591C9.25497 7.09963 9.16718 6.88767 9.16718 6.66666C9.16718 6.44564 9.07938 6.23368 8.9231 6.0774C8.76682 5.92112 8.55486 5.83332 8.33384 5.83332C8.11283 5.83332 7.90087 5.92112 7.74459 6.0774C7.58831 6.23368 7.50051 6.44564 7.50051 6.66666C7.50265 7.18187 7.66391 7.68385 7.96225 8.1039C8.26059 8.52396 8.68142 8.84159 9.16718 9.01332V15H8.06551C7.68967 13.7577 6.98477 12.6401 6.02551 11.7658C5.21131 11.0072 4.63111 10.0314 4.3534 8.95373C4.07569 7.87605 4.11205 6.74142 4.45818 5.68373C4.80432 4.62605 5.44579 3.68945 6.3069 2.98446C7.168 2.27947 8.21281 1.83552 9.31801 1.70499C9.54712 1.67941 9.77748 1.66662 10.008 1.66665C11.4393 1.6624 12.8211 2.19051 13.8847 3.14832C14.5011 3.69799 14.9936 4.3724 15.3296 5.12684C15.6656 5.88129 15.8374 6.69854 15.8337 7.52442C15.8299 8.3503 15.6506 9.16595 15.3077 9.91728C14.9648 10.6686 14.4661 11.3385 13.8447 11.8825H13.8422Z" fill="white"/>
</g>
<defs>
<clipPath id="clip0_82_11919">
<rect width="20" height="20" fill="white"/>
</clipPath>
</defs>
</svg>
