<svg width="48" height="48" viewBox="0 0 48 48" fill="none" xmlns="http://www.w3.org/2000/svg">
<path d="M4.91662 39.5543C9.05872 38.1493 16.8469 36.3245 23.3606 39.4768C23.655 39.6193 24.0001 39.6193 24.2946 39.4768C30.8082 36.3245 38.5964 38.1493 42.7385 39.5543C44.1231 40.024 45.6693 39.0119 45.6693 37.5498V15.845C45.6693 14.663 44.975 13.5762 43.8495 13.215C37.9541 11.323 29.6943 11.4947 24.2279 13.73C23.9709 13.8352 23.6843 13.8352 23.4272 13.73C17.9609 11.4947 9.70105 11.323 3.80559 13.215C2.68012 13.5762 1.98584 14.663 1.98584 15.845V37.5498C1.98584 39.0119 3.532 40.024 4.91662 39.5543Z" fill="#0EC7C1"/>
<path d="M40.5172 33.6865C32.5271 33.0005 29.291 34.6403 24.8005 37.1716C24.1949 37.513 23.4547 37.513 22.8492 37.1716C18.3586 34.6403 15.1225 33.0005 7.1324 33.6865C6.50709 33.7402 5.95605 33.2831 5.95605 32.6927V10.0316C5.95605 9.04379 6.73339 8.20129 7.77896 8.10453C15.3008 7.40839 18.4817 9.01664 22.849 11.4778C23.4546 11.8191 24.195 11.8191 24.8006 11.4778C29.168 9.01664 32.3488 7.40839 39.8707 8.10453C40.9162 8.20129 41.6936 9.04379 41.6936 10.0316V32.6927C41.6936 33.2831 41.1425 33.7402 40.5172 33.6865Z" fill="#9FE9E6"/>
<path d="M22.835 11.4727C22.8406 11.4758 22.8462 11.479 22.8519 11.4822C23.4575 11.8235 24.198 11.8235 24.8037 11.4822C24.8093 11.479 24.8149 11.4758 24.8206 11.4727V37.1689C24.8149 37.1721 24.8092 37.1753 24.8035 37.1785C24.1979 37.5199 23.4577 37.5199 22.852 37.1785C22.8463 37.1753 22.8406 37.1721 22.835 37.1689V11.4727Z" fill="#0EC7C1"/>
</svg>
