<svg width="48" height="48" viewBox="0 0 48 48" fill="none" xmlns="http://www.w3.org/2000/svg">
<path d="M6.1855 8.00637C5.12822 8.19488 4.40076 9.02213 4.28356 10.0938C4.13223 11.4776 3.97119 13.8454 3.97119 17.6561C3.97119 21.4668 4.13223 23.8345 4.28356 25.2184C4.40076 26.29 5.12822 27.1172 6.1855 27.3058C7.12513 27.4733 8.53699 27.6566 10.5899 27.7801V30.2443C10.5899 31.2574 11.7571 31.8206 12.5451 31.1877L16.6088 27.9239C21.458 27.8994 24.2799 27.5812 25.8249 27.3058C26.8822 27.1172 27.6096 26.29 27.7268 25.2184C27.8782 23.8345 28.0392 21.4668 28.0392 17.6561C28.0392 13.8454 27.8782 11.4776 27.7268 10.0938C27.6096 9.02213 26.8822 8.19488 25.8249 8.00636C24.2168 7.71964 21.2257 7.38672 16.0052 7.38672C10.7847 7.38672 7.79357 7.71964 6.1855 8.00637Z" fill="#9EC6F1"/>
<path fill-rule="evenodd" clip-rule="evenodd" d="M19.6738 29.1523C23.4742 29.036 25.8645 28.7484 27.2984 28.4927C28.5143 28.2759 29.3509 27.3246 29.4856 26.0922C29.6597 24.5009 29.8449 21.7779 29.8449 17.3956C29.8449 16.6213 29.8391 15.8988 29.8286 15.2253C30.4033 15.2159 31.0098 15.2109 31.65 15.2109C36.8704 15.2109 39.8616 15.5439 41.4697 15.8306C42.5269 16.0191 43.2544 16.8464 43.3716 17.918C43.5229 19.3018 43.684 21.6696 43.684 25.4803C43.684 29.291 43.5229 31.6588 43.3716 33.0426C43.2544 34.1142 42.5269 34.9415 41.4697 35.13C40.53 35.2975 39.1182 35.4808 37.0653 35.6043V38.0685C37.0653 39.0816 35.898 39.6448 35.1101 39.0119L31.0464 35.7481C26.1972 35.7236 23.3753 35.4055 21.8303 35.13C20.773 34.9415 20.0455 34.1142 19.9283 33.0426C19.8332 32.1727 19.7342 30.9139 19.6738 29.1523Z" fill="#0D70DC"/>
</svg>
