<svg width="49" height="48" viewBox="0 0 49 48" fill="none" xmlns="http://www.w3.org/2000/svg">
<g clip-path="url(#clip0_559_12450)">
<path d="M30.9754 31.3413C33.4953 28.8566 35.0572 25.4029 35.0572 21.5845C35.0572 14.0173 28.9228 7.88281 21.3555 7.88281C13.7883 7.88281 7.65381 14.0173 7.65381 21.5845C7.65381 25.4029 9.21577 28.8566 11.7356 31.3413C10.9096 33.621 10.5384 35.208 10.5384 35.208C10.5384 35.208 10.597 35.8355 11.5473 36.3819C12.4976 36.9284 13.0726 36.6651 13.0726 36.6651C13.0726 36.6651 14.1346 35.675 15.5716 34.0092C17.3288 34.8286 19.2887 35.2862 21.3555 35.2862C23.4223 35.2862 25.3822 34.8286 27.1394 34.0092C28.5764 35.675 29.6384 36.6651 29.6384 36.6651C29.6384 36.6651 30.2134 36.9284 31.1637 36.3819C32.1141 35.8355 32.1726 35.208 32.1726 35.208C32.1726 35.208 31.8014 33.621 30.9754 31.3413Z" fill="#D2B5FB"/>
<path fill-rule="evenodd" clip-rule="evenodd" d="M15.9385 7.43425C12.3009 8.82139 9.33796 11.5647 7.67433 15.0425C7.20209 14.2059 6.93262 13.2397 6.93262 12.2105C6.93262 9.02434 9.51555 6.44141 12.7018 6.44141C13.9014 6.44141 15.0156 6.80758 15.9385 7.43425ZM35.0366 15.0424C33.373 11.5647 30.41 8.82136 26.7724 7.43424C27.6954 6.80757 28.8095 6.44141 30.0092 6.44141C33.1954 6.44141 35.7783 9.02434 35.7783 12.2105C35.7783 13.2397 35.5088 14.2058 35.0366 15.0424Z" fill="#8F47F6"/>
<path fill-rule="evenodd" clip-rule="evenodd" d="M21.4076 12.2109C22.3558 12.2109 23.1245 13.0369 23.1245 14.0557V20.0827C23.1245 20.2821 23.1982 20.4732 23.3294 20.6142L27.3432 24.9268C28.0137 25.6472 28.0137 26.8153 27.3432 27.5357C26.6727 28.2562 25.5856 28.2562 24.9151 27.5357L19.954 23.1301C19.4298 22.6646 19.148 21.9549 19.1981 21.2262L19.6906 14.0557C19.6906 13.0369 20.4593 12.2109 21.4076 12.2109Z" fill="#8F47F6"/>
</g>
<defs>
<clipPath id="clip0_559_12450">
<rect width="48.7845" height="47.65" fill="white"/>
</clipPath>
</defs>
</svg>
