<svg width="48" height="48" viewBox="0 0 48 48" fill="none" xmlns="http://www.w3.org/2000/svg">
<path d="M31.6055 29.2648C31.6055 27.5868 32.9657 26.2266 34.6437 26.2266C36.3217 26.2266 37.682 27.5868 37.682 29.2648V32.9782H31.6055V29.2648Z" fill="#D11993"/>
<path d="M37.6816 36.6922C37.6816 38.3702 36.3214 39.7305 34.6434 39.7305C32.9654 39.7305 31.6051 38.3702 31.6051 36.6922L31.6051 32.9788L37.6816 32.9788L37.6816 36.6922Z" fill="#EDA3D4"/>
<path d="M12.0254 9.98561C12.0254 8.88899 12.9144 8 14.011 8H26.2438C27.3404 8 28.2294 8.88899 28.2294 9.98561V15.4268H12.0254V9.98561Z" fill="#D11993"/>
<path fill-rule="evenodd" clip-rule="evenodd" d="M26.204 15.4297H14.051C14.051 16.9173 13.3506 18.3181 12.1605 19.2106L10 20.831H30.255L28.0945 19.2106C26.9044 18.3181 26.204 16.9173 26.204 15.4297ZM30.255 20.832H10V37.0759C10 38.1725 10.889 39.0615 11.9856 39.0615H28.2694C29.366 39.0615 30.255 38.1725 30.255 37.0759V20.832Z" fill="#EDA3D4"/>
<rect x="14.0508" y="22.8555" width="12.8282" height="12.8282" rx="1.98561" fill="#D11993"/>
<path d="M20.4655 29.2662H17.9336M20.4655 26.7344V29.2662V26.7344ZM20.4655 29.2662V31.7981V29.2662ZM20.4655 29.2662H22.9973H20.4655Z" stroke="#EDA3D4" stroke-width="1.98561" stroke-linecap="round" stroke-linejoin="round"/>
</svg>
