<svg width="20" height="20" viewBox="0 0 20 20" fill="none" xmlns="http://www.w3.org/2000/svg">
<g clip-path="url(#clip0_111_11134)">
<path d="M2.37423 19.625C2.82927 19.8195 3.33235 19.8723 3.81786 19.7765C4.30336 19.6808 4.74874 19.441 5.0959 19.0883L10.0001 14.2108L14.9042 19.0883C15.1329 19.3203 15.4053 19.5047 15.7057 19.6307C16.0061 19.7567 16.3285 19.8219 16.6542 19.8225C16.9891 19.8215 17.3204 19.7544 17.6292 19.625C18.088 19.4393 18.4801 19.1197 18.7544 18.7077C19.0287 18.2958 19.1724 17.8107 19.1667 17.3158V4.16667C19.1654 3.062 18.726 2.00296 17.9449 1.22185C17.1638 0.440735 16.1047 0.00132321 15.0001 0L5.00006 0C3.8954 0.00132321 2.83636 0.440735 2.05525 1.22185C1.27413 2.00296 0.83472 3.062 0.833397 4.16667V17.3158C0.828019 17.8111 0.972211 18.2964 1.24712 18.7084C1.52202 19.1204 1.91485 19.4399 2.37423 19.625Z" fill="#1FA45B"/>
</g>
<defs>
<clipPath id="clip0_111_11134">
<rect width="20" height="20" fill="white"/>
</clipPath>
</defs>
</svg>
