<svg width="19" height="19" viewBox="0 0 19 19" fill="none" xmlns="http://www.w3.org/2000/svg">
<path d="M8 3.00114H3C2.46957 3.00114 1.96086 3.21185 1.58579 3.58693C1.21071 3.962 1 4.47071 1 5.00114V16.0011C1 16.5316 1.21071 17.0403 1.58579 17.4154C1.96086 17.7904 2.46957 18.0011 3 18.0011H14C14.5304 18.0011 15.0391 17.7904 15.4142 17.4154C15.7893 17.0403 16 16.5316 16 16.0011V11.0011M14.586 1.58714C14.7705 1.39612 14.9912 1.24375 15.2352 1.13894C15.4792 1.03412 15.7416 0.978946 16.0072 0.976638C16.2728 0.97433 16.5361 1.02493 16.7819 1.1255C17.0277 1.22606 17.251 1.37456 17.4388 1.56235C17.6266 1.75013 17.7751 1.97344 17.8756 2.21923C17.9762 2.46502 18.0268 2.72838 18.0245 2.99394C18.0222 3.2595 17.967 3.52194 17.8622 3.76595C17.7574 4.00996 17.605 4.23065 17.414 4.41514L8.828 13.0011H6V10.1731L14.586 1.58714Z" stroke="white" stroke-width="1.5" stroke-linecap="round" stroke-linejoin="round"/>
</svg>
