<svg width="24" height="24" viewBox="0 0 20 20" fill="none" xmlns="http://www.w3.org/2000/svg">
<path d="M18.6 18.6L14 14M16 9C16 9.91925 15.8189 10.8295 15.4672 11.6788C15.1154 12.5281 14.5998 13.2997 13.9497 13.9497C13.2997 14.5998 12.5281 15.1154 11.6788 15.4672C10.8295 15.8189 9.91925 16 9 16C8.08075 16 7.1705 15.8189 6.32122 15.4672C5.47194 15.1154 4.70026 14.5998 4.05025 13.9497C3.40024 13.2997 2.88463 12.5281 2.53284 11.6788C2.18106 10.8295 2 9.91925 2 9C2 7.14348 2.7375 5.36301 4.05025 4.05025C5.36301 2.7375 7.14348 2 9 2C10.8565 2 12.637 2.7375 13.9497 4.05025C15.2625 5.36301 16 7.14348 16 9Z" stroke="#393939" stroke-width="2.05128" stroke-linecap="round" stroke-linejoin="round"/>
</svg>
