<svg width="20" height="20" viewBox="0 0 20 20" fill="none" xmlns="http://www.w3.org/2000/svg">
<path fill-rule="evenodd" clip-rule="evenodd" d="M11.7881 1.80244C11.3321 -0.0695625 8.66809 -0.0695625 8.21209 1.80244C8.14401 2.08374 8.01048 2.34499 7.82236 2.56493C7.63424 2.78487 7.39685 2.95729 7.1295 3.06816C6.86216 3.17903 6.57242 3.22521 6.28385 3.20294C5.99529 3.18068 5.71606 3.0906 5.46889 2.94004C3.82249 1.93684 1.93849 3.82084 2.94169 5.46724C3.58969 6.53044 3.01489 7.91764 1.80529 8.21164C-0.0679093 8.66644 -0.0679093 11.3316 1.80529 11.7852C2.08666 11.8534 2.34796 11.9871 2.5679 12.1753C2.78785 12.3636 2.96022 12.6011 3.07098 12.8686C3.18174 13.1361 3.22776 13.426 3.20529 13.7146C3.18283 14.0033 3.09251 14.2825 2.94169 14.5296C1.93849 16.176 3.82249 18.06 5.46889 17.0568C5.71602 16.906 5.99527 16.8157 6.28391 16.7932C6.57255 16.7708 6.86242 16.8168 7.12991 16.9275C7.39739 17.0383 7.63494 17.2107 7.8232 17.4306C8.01147 17.6506 8.14512 17.9119 8.21329 18.1932C8.66809 20.0664 11.3333 20.0664 11.7869 18.1932C11.8553 17.912 11.9891 17.6509 12.1774 17.4311C12.3657 17.2113 12.6032 17.039 12.8706 16.9283C13.138 16.8176 13.4278 16.7715 13.7163 16.7939C14.0049 16.8162 14.2841 16.9063 14.5313 17.0568C16.1777 18.06 18.0617 16.176 17.0585 14.5296C16.9079 14.2825 16.8178 14.0032 16.7955 13.7147C16.7732 13.4261 16.8192 13.1363 16.93 12.8689C17.0407 12.6015 17.213 12.364 17.4328 12.1757C17.6525 11.9874 17.9137 11.8536 18.1949 11.7852C20.0681 11.3304 20.0681 8.66524 18.1949 8.21164C17.9135 8.14347 17.6522 8.00981 17.4323 7.82155C17.2123 7.63329 17.04 7.39574 16.9292 7.12825C16.8184 6.86076 16.7724 6.5709 16.7949 6.28226C16.8174 5.99362 16.9077 5.71437 17.0585 5.46724C18.0617 3.82084 16.1777 1.93684 14.5313 2.94004C14.2842 3.09085 14.0049 3.18117 13.7163 3.20364C13.4276 3.22611 13.1378 3.18009 12.8703 3.06932C12.6028 2.95856 12.3652 2.78619 12.177 2.56625C11.9887 2.34631 11.8551 2.08501 11.7869 1.80364L11.7881 1.80244ZM10.0001 13.5984C10.9549 13.5984 11.8705 13.2192 12.5457 12.544C13.2208 11.8689 13.6001 10.9532 13.6001 9.99844C13.6001 9.04366 13.2208 8.12798 12.5457 7.45285C11.8705 6.77772 10.9549 6.39844 10.0001 6.39844C9.04531 6.39844 8.12964 6.77772 7.45451 7.45285C6.77938 8.12798 6.40009 9.04366 6.40009 9.99844C6.40009 10.9532 6.77938 11.8689 7.45451 12.544C8.12964 13.2192 9.04531 13.5984 10.0001 13.5984Z" fill="#1FA45B"/>
</svg>
