<svg width="22" height="22" viewBox="0 0 20 20" fill="none" xmlns="http://www.w3.org/2000/svg">
<g clip-path="url(#clip0_111_10175)">
<path d="M14.9945 1.90694C13.9774 0.998227 12.7317 0.384094 11.3915 0.130634C10.0513 -0.122826 8.66734 -0.00601694 7.38858 0.468491C6.10983 0.942998 4.98468 1.75724 4.13423 2.82359C3.28377 3.88993 2.74021 5.16801 2.56203 6.52028C2.40202 7.70598 2.52999 8.91279 2.93513 10.0386C3.34027 11.1643 4.01065 12.1759 4.88953 12.9878C5.43303 13.4644 5.8716 14.0487 6.17744 14.7037C6.48327 15.3587 6.64971 16.0701 6.6662 16.7928V16.9269C6.66708 17.7422 6.99134 18.5238 7.56782 19.1003C8.1443 19.6768 8.92593 20.0011 9.7412 20.0019H10.2579C11.0731 20.0011 11.8548 19.6768 12.4312 19.1003C13.0077 18.5238 13.332 17.7422 13.3329 16.9269V16.4694C13.3453 15.8307 13.4957 15.2021 13.7735 14.6268C14.0514 14.0515 14.4503 13.543 14.9429 13.1361C15.7417 12.4365 16.3827 11.5751 16.8235 10.609C17.2643 9.64293 17.4948 8.59421 17.4997 7.53234C17.5045 6.47046 17.2837 5.41967 16.8519 4.44957C16.42 3.47948 15.7869 2.61223 14.9945 1.90527V1.90694ZM10.2579 18.3353H9.7412C9.36782 18.3348 9.00986 18.1863 8.74585 17.9223C8.48183 17.6583 8.33331 17.3003 8.33287 16.9269C8.33287 16.9269 8.32703 16.7103 8.3262 16.6686H11.6662V16.9269C11.6658 17.3003 11.5172 17.6583 11.2532 17.9223C10.9892 18.1863 10.6312 18.3348 10.2579 18.3353ZM13.8412 11.8844C12.8924 12.7074 12.2072 13.7917 11.8712 15.0019H10.8329V9.01528C11.3186 8.84354 11.7395 8.52592 12.0378 8.10586C12.3361 7.6858 12.4974 7.18383 12.4995 6.66861C12.4995 6.44759 12.4117 6.23563 12.2555 6.07935C12.0992 5.92307 11.8872 5.83528 11.6662 5.83528C11.4452 5.83528 11.2332 5.92307 11.0769 6.07935C10.9207 6.23563 10.8329 6.44759 10.8329 6.66861C10.8329 6.88962 10.7451 7.10158 10.5888 7.25786C10.4325 7.41414 10.2205 7.50194 9.99953 7.50194C9.77852 7.50194 9.56656 7.41414 9.41028 7.25786C9.254 7.10158 9.1662 6.88962 9.1662 6.66861C9.1662 6.44759 9.0784 6.23563 8.92212 6.07935C8.76584 5.92307 8.55388 5.83528 8.33287 5.83528C8.11185 5.83528 7.89989 5.92307 7.74361 6.07935C7.58733 6.23563 7.49953 6.44759 7.49953 6.66861C7.50167 7.18383 7.66294 7.6858 7.96127 8.10586C8.25961 8.52592 8.68044 8.84354 9.1662 9.01528V15.0019H8.06453C7.68869 13.7596 6.9838 12.6421 6.02453 11.7678C5.21033 11.0091 4.63014 10.0334 4.35242 8.95568C4.07471 7.878 4.11107 6.74337 4.45721 5.68569C4.80335 4.628 5.44482 3.6914 6.30592 2.98641C7.16703 2.28142 8.21183 1.83747 9.31703 1.70694C9.54614 1.68137 9.7765 1.66857 10.007 1.66861C11.4383 1.66435 12.8201 2.19246 13.8837 3.15027C14.5001 3.69994 14.9926 4.37435 15.3287 5.1288C15.6647 5.88324 15.8365 6.7005 15.8327 7.52638C15.8289 8.35226 15.6496 9.1679 15.3067 9.91924C14.9638 10.6706 14.4651 11.3404 13.8437 11.8844H13.8412Z" fill="#ffffff"/>
</g>
<defs>
<clip-path id="clip0_111_10175">
<rect width="20" height="20" fill="white"/>
</clip-path>
</defs>
</svg>
