<svg width="20" height="24" viewBox="0 0 20 24" fill="none" xmlns="http://www.w3.org/2000/svg">
<path d="M16.6349 12.8913C16.605 9.88809 19.0839 8.44769 19.1947 8.37492C17.8016 6.33794 15.6311 6.05844 14.8586 6.02663C13.013 5.83918 11.2555 7.1138 10.3191 7.1138C9.38475 7.1138 7.93809 6.0541 6.40758 6.08109C4.39421 6.11097 2.53842 7.2521 1.50234 9.0544C-0.588622 12.6816 0.967428 18.0572 3.00489 21.0011C4.00098 22.4401 5.18886 24.0593 6.74732 24C8.24939 23.9407 8.81611 23.0285 10.6319 23.0285C12.4477 23.0285 12.9575 24 14.5464 23.9696C16.1617 23.9402 17.1857 22.5032 18.1736 21.0585C19.3172 19.3868 19.788 17.7681 19.8159 17.6862C19.7807 17.6698 16.6672 16.4771 16.6349 12.8913Z" fill="black"/>
<path d="M13.6489 4.07437C14.4753 3.07106 15.0353 1.67693 14.883 0.289062C13.6903 0.337252 12.2466 1.08179 11.3902 2.08413C10.623 2.97372 9.95224 4.39002 10.132 5.75283C11.4625 5.85595 12.8195 5.07576 13.6489 4.07437Z" fill="black"/>
</svg>
