<svg width="24" height="25" viewBox="0 0 24 25" fill="none" xmlns="http://www.w3.org/2000/svg">
<g clip-path="url(#clip0_16_21143)">
<path d="M23.6099 12.0321C23.6099 5.67173 18.4119 0.515625 11.9998 0.515625C5.58767 0.515625 0.389648 5.67173 0.389648 12.0321C0.389648 17.7803 4.6353 22.5448 10.1857 23.4087V15.3611H7.23782V12.0321H10.1857V9.4949C10.1857 6.60857 11.919 5.01426 14.571 5.01426C15.8413 5.01426 17.1699 5.23919 17.1699 5.23919V8.07333H15.7059C14.2636 8.07333 13.8139 8.96107 13.8139 9.87182V12.0321H17.0339L16.5191 15.3611H13.8139V23.4087C19.3642 22.5448 23.6099 17.7803 23.6099 12.0321Z" fill="#1877F2"/>
<path d="M16.5186 15.3625L17.0333 12.0335H13.8133V9.87317C13.8133 8.96243 14.2631 8.07469 15.7054 8.07469H17.1694V5.24055C17.1694 5.24055 15.8407 5.01562 14.5705 5.01562C11.9185 5.01562 10.1852 6.60993 10.1852 9.49626V12.0335H7.2373V15.3625H10.1852V23.4101C10.7853 23.5034 11.3918 23.5501 11.9993 23.55C12.6164 23.55 13.2222 23.5021 13.8133 23.4101V15.3625H16.5186Z" fill="white"/>
</g>
<defs>
<clip-path id="clip0_16_21143">
<rect width="23.5948" height="23.5948" fill="white" transform="translate(0.202148 0.65625)"/>
</clip-path>
</defs>
</svg>
