<svg width="24" height="24" viewBox="0 0 24 24" fill="none" xmlns="http://www.w3.org/2000/svg">
<g clip-path="url(#clip0_16_21135)">
<path d="M23.2557 12.0955C23.2557 11.3423 23.1812 10.5648 23.057 9.83594H12.3027V14.1364H18.4622C18.2138 15.5214 17.3942 16.7362 16.1772 17.5137L19.8531 20.3078C22.0138 18.3398 23.2557 15.4728 23.2557 12.0955Z" fill="#4280EF"/>
<path d="M12.3031 22.982C15.3829 22.982 17.9659 21.9858 19.8534 20.285L16.1776 17.5152C15.1593 18.1955 13.843 18.5843 12.3031 18.5843C9.32273 18.5843 6.81423 16.6162 5.89528 13.9922L2.12012 16.8349C4.05737 20.6009 7.98155 22.982 12.3031 22.982Z" fill="#34A353"/>
<path d="M5.89513 13.9713C5.42323 12.5864 5.42323 11.08 5.89513 9.69513L2.11996 6.82812C0.505585 9.98669 0.505585 13.7041 2.11996 16.8384L5.89513 13.9713Z" fill="#F6B704"/>
<path d="M12.3031 5.10211C13.9175 5.07781 15.507 5.68523 16.6744 6.77858L19.928 3.57142C17.8665 1.67628 15.1345 0.655815 12.3031 0.680112C7.98155 0.680112 4.05737 3.06119 2.12012 6.82717L5.89528 9.69418C6.81423 7.04584 9.32273 5.10211 12.3031 5.10211Z" fill="#E54335"/>
</g>
<defs>
<clip-path id="clip0_16_21135">
<rect width="22.3529" height="22.3529" fill="white" transform="translate(0.902344 0.65625)"/>
</clip-path>
</defs>
</svg>
