<svg width="20" height="20" viewBox="0 0 20 20" fill="none" xmlns="http://www.w3.org/2000/svg">
<path fill-rule="evenodd" clip-rule="evenodd" d="M3.70692 2.29243C3.51832 2.11027 3.26571 2.00948 3.00352 2.01176C2.74132 2.01403 2.49051 2.1192 2.3051 2.30461C2.11969 2.49002 2.01452 2.74083 2.01224 3.00303C2.00997 3.26523 2.11076 3.51783 2.29292 3.70643L16.2929 17.7064C16.4815 17.8886 16.7341 17.9894 16.9963 17.9871C17.2585 17.9848 17.5093 17.8797 17.6947 17.6942C17.8801 17.5088 17.9853 17.258 17.9876 16.9958C17.9899 16.7336 17.8891 16.481 17.7069 16.2924L16.2339 14.8194C17.7914 13.5775 18.9432 11.8994 19.5419 9.99943C18.2679 5.94243 14.4779 2.99943 9.99992 2.99943C8.43235 2.9973 6.88642 3.36529 5.48792 4.07343L3.70792 2.29243H3.70692ZM7.96792 6.55243L9.48192 8.06743C9.82101 7.97738 10.1778 7.97798 10.5166 8.06916C10.8554 8.16034 11.1643 8.33891 11.4124 8.587C11.6604 8.83508 11.839 9.14397 11.9302 9.48276C12.0214 9.82155 12.022 10.1783 11.9319 10.5174L13.4459 12.0314C13.8969 11.2675 14.0811 10.3752 13.9696 9.49511C13.858 8.61499 13.4571 7.79693 12.8297 7.16961C12.2024 6.54229 11.3844 6.14132 10.5042 6.02978C9.62412 5.91823 8.7319 6.10244 7.96792 6.55343V6.55243Z" fill="#393939" fill-opacity="0.35"/>
<path d="M12.454 16.6971L9.75001 13.9921C8.77769 13.9312 7.86103 13.5175 7.17206 12.8288C6.4831 12.14 6.06918 11.2234 6.00801 10.2511L2.33501 6.57812C1.49022 7.58414 0.852357 8.74704 0.458008 10.0001C1.73201 14.0571 5.52301 17.0001 10 17.0001C10.847 17.0001 11.669 16.8951 12.454 16.6971Z" fill="#393939" fill-opacity="0.35"/>
</svg>
