<svg width="48" height="48" viewBox="0 0 48 48" fill="none" xmlns="http://www.w3.org/2000/svg">
<path d="M40 30C41.1046 30 42 30.8954 42 32V40C42 42.2092 40.2092 44 38 44H10C7.79086 44 6 42.2092 6 40V32C6 30.8954 6.89544 30 8 30C9.10456 30 10 30.8954 10 32V40H38V32C38 30.8954 38.8954 30 40 30ZM24 4C25.1046 4 26 4.89544 26 6V26.4852L31.071 21.4142C31.8522 20.633 33.1184 20.633 33.8994 21.4142C34.6806 22.1952 34.6806 23.4616 33.8994 24.2426L25.7678 32.3742C24.7914 33.3506 23.2086 33.3506 22.2322 32.3742L14.1005 24.2426C13.3195 23.4616 13.3195 22.1952 14.1005 21.4142C14.8816 20.633 16.1479 20.633 16.9289 21.4142L22 26.4852V6C22 4.89544 22.8954 4 24 4Z" fill="#1FA45B"/>
</svg>
