<svg width="23" height="26" viewBox="0 0 23 26" fill="none" xmlns="http://www.w3.org/2000/svg">
<path d="M1.30932 1.00053C1.76669 0.94259 2.23048 1.04157 2.62128 1.28053L15.9459 8.67053L12.5737 12.0005L1.30932 1.00053ZM0.284352 2.00053C0.220093 2.21824 0.189011 2.44399 0.192105 2.67053V23.3305C0.189011 23.5571 0.220093 23.7828 0.284352 24.0005L11.559 13.0005L0.284352 2.00053ZM12.584 14.0005L1.30932 25.0005C1.76691 25.0637 2.23253 24.9643 2.62128 24.7205L15.9459 17.3305L12.584 14.0005ZM21.3167 11.6605L17.2783 9.42053L13.5885 13.0005L17.2681 16.5905L21.3065 14.3505C22.6389 13.6105 22.6389 12.3905 21.3065 11.6505L21.3167 11.6605Z" fill="#626D7D"/>
</svg>
