<svg width="24" height="27" viewBox="0 0 24 27" fill="none" xmlns="http://www.w3.org/2000/svg">
<path d="M22.6158 20.35C22.2244 21.2364 21.7401 22.0808 21.1706 22.87C20.6413 23.6801 20.0226 24.4313 19.3257 25.11C18.6829 25.7188 17.8326 26.0748 16.9375 26.11C16.1767 26.076 15.4292 25.903 14.7338 25.6C13.9846 25.2885 13.1804 25.1221 12.3661 25.11C11.5271 25.1267 10.6991 25.2998 9.9267 25.62C9.26137 25.9111 8.55151 26.0936 7.82551 26.16C7.36768 26.1525 6.91601 26.0558 6.49707 25.8754C6.07813 25.6951 5.70039 25.4349 5.38608 25.11C4.66011 24.4221 4.01077 23.6612 3.44889 22.84C2.57148 21.6101 1.88102 20.2628 1.39895 18.84C0.845313 17.3208 0.554357 15.7223 0.537976 14.11C0.493522 12.5271 0.897866 10.963 1.70644 9.59C2.27797 8.56889 3.116 7.71333 4.13562 7.11C5.13435 6.52825 6.27292 6.21432 7.43602 6.2C8.31393 6.25323 9.17654 6.44926 9.98819 6.78C10.6413 7.06336 11.331 7.25849 12.0381 7.36C12.8069 7.20376 13.5586 6.97606 14.2828 6.68C15.2576 6.29227 16.3058 6.11159 17.3577 6.15C18.3517 6.17731 19.326 6.42682 20.2056 6.87932C21.0853 7.33181 21.8467 7.97522 22.4313 8.76C21.5037 9.23765 20.7317 9.95918 20.2027 10.8429C19.6738 11.7265 19.409 12.7371 19.4384 13.76C19.4279 14.5421 19.5879 15.3174 19.9077 16.0345C20.2276 16.7517 20.7 17.3944 21.2936 17.92C21.8169 18.4143 22.4237 18.8169 23.0873 19.11C22.9336 19.53 22.7798 19.93 22.6158 20.32V20.35ZM17.45 0.51C17.4315 1.86285 16.9107 3.16326 15.9843 4.17C15.5155 4.79989 14.8983 5.31045 14.1847 5.65856C13.4711 6.00666 12.6821 6.18208 11.8844 6.17C11.8736 6.00684 11.8736 5.84316 11.8844 5.68C11.9282 4.30833 12.4777 2.99812 13.4321 1.99C13.963 1.40811 14.6077 0.935532 15.3283 0.6C16.0021 0.264072 16.7368 0.0602312 17.491 0C17.5009 0.173199 17.5009 0.346801 17.491 0.52L17.45 0.51Z" fill="#626D7D"/>
</svg>
