<svg width="30" height="30" viewBox="0 0 40 41" fill="none" xmlns="http://www.w3.org/2000/svg">
<path d="M30.5432 26.9268C30.1613 27.8132 29.6888 28.6577 29.1332 29.4468C28.6168 30.257 28.0132 31.0081 27.3332 31.6868C26.7061 32.2956 25.8765 32.6517 25.0032 32.6868C24.261 32.6528 23.5317 32.4798 22.8532 32.1768C22.1223 31.8653 21.3377 31.6989 20.5432 31.6868C19.7246 31.7035 18.9168 31.8766 18.1632 32.1968C17.5141 32.488 16.8215 32.6704 16.1132 32.7368C15.6665 32.7294 15.2259 32.6326 14.8171 32.4523C14.4084 32.272 14.0399 32.0117 13.7332 31.6868C13.0249 30.9989 12.3914 30.238 11.8432 29.4168C10.9872 28.1869 10.3135 26.8396 9.84323 25.4168C9.30308 23.8976 9.01921 22.2992 9.00323 20.6868C8.95986 19.104 9.35435 17.5398 10.1432 16.1668C10.7008 15.1457 11.5185 14.2902 12.5132 13.6868C13.4876 13.1051 14.5985 12.7912 15.7332 12.7768C16.5897 12.8301 17.4313 13.0261 18.2232 13.3568C18.8604 13.6402 19.5333 13.8353 20.2232 13.9368C20.9733 13.7806 21.7066 13.5529 22.4132 13.2568C23.3642 12.8691 24.3869 12.6884 25.4132 12.7268C26.383 12.7542 27.3336 13.0037 28.1918 13.4562C29.0499 13.9087 29.7928 14.5521 30.3632 15.3368C29.4582 15.8145 28.705 16.536 28.1889 17.4197C27.6729 18.3034 27.4145 19.3139 27.4432 20.3368C27.433 21.1189 27.5891 21.8942 27.9011 22.6114C28.2132 23.3286 28.674 23.9712 29.2532 24.4968C29.7638 24.9912 30.3558 25.3937 31.0032 25.6868C30.8532 26.1068 30.7032 26.5068 30.5432 26.8968V26.9268ZM25.5032 7.08684C25.4852 8.4397 24.9771 9.7401 24.0732 10.7468C23.6159 11.3767 23.0137 11.8873 22.3175 12.2354C21.6213 12.5835 20.8515 12.7589 20.0732 12.7468C20.0627 12.5837 20.0627 12.42 20.0732 12.2568C20.1159 10.8852 20.6521 9.57496 21.5832 8.56684C22.1012 7.98495 22.7302 7.51238 23.4332 7.17684C24.0906 6.84092 24.8075 6.63707 25.5432 6.57684C25.5529 6.75004 25.5529 6.92364 25.5432 7.09684L25.5032 7.08684Z" fill="#626D7D"/>
</svg>
