<svg width="48" height="48" viewBox="0 0 48 48" fill="none" xmlns="http://www.w3.org/2000/svg">
<path d="M16.7998 7.20312C16.1633 7.20313 15.5528 7.45598 15.1027 7.90607C14.6527 8.35616 14.3998 8.96661 14.3998 9.60312C14.3998 10.2396 14.6527 10.8501 15.1027 11.3002C15.5528 11.7503 16.1633 12.0031 16.7998 12.0031H31.1998C31.8363 12.0031 32.4468 11.7503 32.8969 11.3002C33.3469 10.8501 33.5998 10.2396 33.5998 9.60312C33.5998 8.96661 33.3469 8.35616 32.8969 7.90607C32.4468 7.45598 31.8363 7.20313 31.1998 7.20312H16.7998ZM9.5998 16.8031C9.5998 16.1666 9.85266 15.5562 10.3027 15.1061C10.7528 14.656 11.3633 14.4031 11.9998 14.4031H35.9998C36.6363 14.4031 37.2468 14.656 37.6969 15.1061C38.1469 15.5562 38.3998 16.1666 38.3998 16.8031C38.3998 17.4396 38.1469 18.0501 37.6969 18.5002C37.2468 18.9503 36.6363 19.2031 35.9998 19.2031H11.9998C11.3633 19.2031 10.7528 18.9503 10.3027 18.5002C9.85266 18.0501 9.5998 17.4396 9.5998 16.8031ZM4.7998 26.4031C4.7998 25.1301 5.30552 23.9092 6.20569 23.009C7.10587 22.1088 8.32677 21.6031 9.5998 21.6031H38.3998C39.6728 21.6031 40.8937 22.1088 41.7939 23.009C42.6941 23.9092 43.1998 25.1301 43.1998 26.4031V36.0031C43.1998 37.2762 42.6941 38.4971 41.7939 39.3972C40.8937 40.2974 39.6728 40.8031 38.3998 40.8031H9.5998C8.32677 40.8031 7.10587 40.2974 6.20569 39.3972C5.30552 38.4971 4.7998 37.2762 4.7998 36.0031V26.4031Z" fill="#1FA45B"/>
</svg>
