<svg width="25" height="24" viewBox="0 0 25 24" fill="none" xmlns="http://www.w3.org/2000/svg">
<g clip-path="url(#clip0_1532_18061)">
<path d="M12.9629 0C10.5895 0 8.26944 0.703788 6.29605 2.02236C4.32266 3.34094 2.78459 5.21509 1.87634 7.4078C0.96809 9.60051 0.73045 12.0133 1.19347 14.3411C1.6565 16.6689 2.79938 18.8071 4.47761 20.4853C6.15584 22.1635 8.29404 23.3064 10.6218 23.7694C12.9496 24.2324 15.3624 23.9948 17.5551 23.0866C19.7478 22.1783 21.622 20.6402 22.9405 18.6668C24.2591 16.6935 24.9629 14.3734 24.9629 12C24.9595 8.81846 23.6941 5.76821 21.4444 3.51852C19.1947 1.26883 16.1444 0.00344108 12.9629 0V0ZM21.6099 7H18.3889C17.6679 5.32899 16.7185 3.76609 15.5679 2.356C18.1144 3.04893 20.2852 4.71747 21.6099 7ZM17.4629 12C17.4547 13.0181 17.2942 14.0293 16.9869 15H8.9389C8.63155 14.0293 8.47111 13.0181 8.4629 12C8.47111 10.9819 8.63155 9.97068 8.9389 9H16.9869C17.2942 9.97068 17.4547 10.9819 17.4629 12ZM9.7409 17H16.1849C15.3361 18.6757 14.251 20.2208 12.9629 21.588C11.6743 20.2212 10.5891 18.676 9.7409 17ZM9.7409 7C10.5897 5.32427 11.6747 3.77916 12.9629 2.412C14.2515 3.77877 15.3367 5.32396 16.1849 7H9.7409ZM10.3629 2.356C9.21056 3.76578 8.25948 5.3287 7.5369 7H4.3159C5.64175 4.71643 7.81455 3.04775 10.3629 2.356ZM3.4239 9H6.8629C6.60365 9.97915 6.46925 10.9871 6.4629 12C6.46925 13.0129 6.60365 14.0209 6.8629 15H3.4239C2.80924 13.0472 2.80924 10.9528 3.4239 9ZM4.3159 17H7.5369C8.25948 18.6713 9.21056 20.2342 10.3629 21.644C7.81455 20.9522 5.64175 19.2836 4.3159 17ZM15.5679 21.644C16.7185 20.2339 17.6679 18.671 18.3889 17H21.6099C20.2852 19.2825 18.1144 20.9511 15.5679 21.644ZM22.5019 15H19.0629C19.3221 14.0209 19.4565 13.0129 19.4629 12C19.4565 10.9871 19.3221 9.97915 19.0629 9H22.4999C23.1146 10.9528 23.1146 13.0472 22.4999 15H22.5019Z" fill="#626D7D"/>
</g>
<defs>
<clipPath id="clip0_1532_18061">
<rect width="24" height="24" fill="white" transform="translate(0.962891)"/>
</clipPath>
</defs>
</svg>
