<svg width="30" height="30" viewBox="0 0 30 30" fill="none" xmlns="http://www.w3.org/2000/svg">
<path d="M7.56765 6.00003C7.90232 5.95658 8.24169 6.03081 8.52765 6.21003L18.2777 11.7525L15.8102 14.25L7.56765 6.00003ZM6.81765 6.75003C6.77063 6.91331 6.74789 7.08262 6.75015 7.25253V22.7475C6.74789 22.9174 6.77063 23.0867 6.81765 23.25L15.0677 15L6.81765 6.75003ZM15.8177 15.75L7.56765 24C7.90248 24.0474 8.24319 23.9729 8.52765 23.79L18.2777 18.2475L15.8177 15.75ZM22.2077 13.995L19.2527 12.315L16.5527 15L19.2452 17.6925L22.2002 16.0125C23.1752 15.4575 23.1752 14.5425 22.2002 13.9875L22.2077 13.995Z" fill="#626D7D"/>
</svg>
